<svg width="15" height="15" viewBox="0 0 15 15" fill="none" xmlns="http://www.w3.org/2000/svg">
<g clip-path="url(#clip0_4123_65)">
<path d="M12.7732 7.57693C13.0427 7.16677 13.3006 6.73318 13.5349 6.29958C14.7302 4.02615 14.8474 2.16287 13.8748 1.19021C12.9021 0.217554 11.0388 0.34646 8.76541 1.53005C6.32791 2.84255 4.19509 4.8113 2.56619 7.04958C2.34353 6.70974 2.14431 6.35818 1.95681 6.00662C0.913843 4.01443 0.74978 2.3738 1.5115 1.60037C2.27322 0.838647 3.92556 1.00271 5.91775 2.04568C6.03494 2.11599 6.17556 2.09255 6.28103 1.9988C6.39822 1.88162 6.39822 1.69412 6.28103 1.58865C6.25759 1.56521 6.23416 1.55349 6.21072 1.54177C3.949 0.34646 2.08572 0.217554 1.11306 1.19021C0.140405 2.16287 0.269311 4.02615 1.45291 6.29958C1.68728 6.73318 1.94509 7.16677 2.21462 7.57693C1.94509 7.98708 1.68728 8.42068 1.45291 8.85427C0.269311 11.1277 0.140405 12.991 1.11306 13.9636C1.54666 14.3972 2.15603 14.6082 2.90603 14.6082C3.83181 14.6082 4.96853 14.2801 6.22244 13.6121C6.36306 13.5418 6.42166 13.3543 6.35134 13.2136C6.28103 13.073 6.09353 13.0144 5.95291 13.0847C3.949 14.1277 2.30837 14.3035 1.53494 13.5301C0.761499 12.7566 0.93728 11.116 1.98025 9.11208C2.16775 8.76052 2.36697 8.42068 2.57791 8.08083C2.81228 8.39724 3.05837 8.72537 3.31619 9.04177C3.71462 9.52224 4.14822 10.0027 4.60525 10.4597C5.57791 11.4324 6.69119 12.3465 7.83962 13.0613C9.44509 14.0691 10.9334 14.5847 12.0935 14.5847C12.8318 14.5847 13.4529 14.3738 13.8748 13.9402C14.8474 12.9676 14.7185 11.1043 13.5349 8.83083C13.3123 8.42068 13.0545 7.98708 12.7732 7.57693ZM13.4763 13.5418C12.5857 14.4324 10.4998 14.0457 8.15603 12.5691C6.84353 11.7254 6.07009 11.0691 5.02712 10.0496C4.58181 9.60427 4.15994 9.13552 3.77322 8.67849C3.46853 8.31521 3.18728 7.95193 2.92947 7.57693C4.52322 5.33865 6.63259 3.35818 9.04665 2.0574C11.0506 1.01443 12.6912 0.838647 13.4646 1.61208C14.2381 2.38552 14.0623 4.03787 13.0193 6.03005C12.8318 6.38162 12.6326 6.72146 12.4217 7.0613C12.1873 6.73318 11.9412 6.41677 11.6834 6.10037C11.2849 5.6199 10.8631 5.15115 10.3943 4.69412C9.93728 4.23709 9.45681 3.80349 8.97634 3.40505C8.84744 3.29958 8.67165 3.32302 8.56619 3.44021C8.46072 3.56912 8.48416 3.7449 8.60134 3.85037C9.07009 4.22537 9.52712 4.64724 9.97244 5.10427C10.4177 5.54958 10.8396 6.01833 11.2263 6.47537C11.2263 6.47537 11.2263 6.47537 11.2263 6.48708C11.5193 6.85037 11.8006 7.21365 12.0584 7.58865C11.8006 7.95193 11.5193 8.32693 11.2146 8.69021C10.4412 9.62771 9.52712 10.5418 8.58962 11.3152C8.46072 11.4207 8.449 11.6082 8.55447 11.7254C8.65994 11.8543 8.84744 11.866 8.96462 11.7605C9.92556 10.9636 10.8748 10.0261 11.6717 9.05349C11.9295 8.73708 12.1873 8.40896 12.4099 8.09255C12.6209 8.4324 12.8318 8.77224 13.0193 9.1238C14.074 11.1277 14.2381 12.7801 13.4763 13.5418Z" fill="black"/>
</g>
<defs>
<clipPath id="clip0_4123_65">
<rect width="15" height="15" fill="white" transform="translate(0 0.0771484)"/>
</clipPath>
</defs>
</svg>
