<svg width="24" height="24" viewBox="0 0 24 24" fill="none" xmlns="http://www.w3.org/2000/svg">
<path d="M5.00018 11.9999C4.99818 12.0169 4.99918 11.9869 5.00018 11.9999V11.9999ZM18.5002 11.4999H6.09118C6.16518 11.2939 6.28618 11.0999 6.45318 10.9359L10.4012 6.89286C10.5942 6.69486 10.5902 6.37786 10.3922 6.18586C10.1952 5.99286 9.87918 5.99786 9.68518 6.19386L5.74418 10.2309C5.26518 10.7039 5.00018 11.3719 5.00018 12.0009C5.00718 12.6249 5.24718 13.2859 5.71618 13.7619L9.63918 17.8479C9.73718 17.9499 9.86818 18.0009 10.0002 18.0009C10.1252 18.0009 10.2502 17.9549 10.3462 17.8609C10.5452 17.6709 10.5522 17.3529 10.3612 17.1539L6.43318 13.0629C6.27118 12.8989 6.15418 12.7059 6.08418 12.5009H18.5002C18.7762 12.5009 19.0002 12.2769 19.0002 12.0009C19.0002 11.7249 18.7762 11.5009 18.5002 11.5009V11.4999Z" fill="#101014"/>
</svg>
