<svg width="30" height="32" viewBox="0 0 30 32" fill="none" xmlns="http://www.w3.org/2000/svg">
<path d="M3.11673 10.5862L2.76365 11.4828V29.8966C2.76365 29.8966 7.9693 31 14.4243 31C20.8793 31 25.5297 30.1034 25.5297 30.1034V11.7586L29.0002 3.55172V1H5.81763L5.87016 2.93103M3.11673 10.5862L4.88603 11.2202C5.82979 11.5584 6.87128 11.0841 7.23574 10.1502V10.1502C7.60399 9.20653 7.14571 8.14214 6.20715 7.76116L4.50189 7.06897M3.11673 10.5862L3.52413 9.55172M4.50189 7.06897L5.88704 3.55172L5.88141 3.34483L5.87016 2.93103M4.50189 7.06897L4.01301 8.31034M5.87016 2.93103H24.0156M4.01301 8.31034L2.48601 7.68966L2.00015 8.93103L3.52413 9.55172M4.01301 8.31034L3.52413 9.55172" stroke="#264EAB"/>
<rect x="1.29164" y="6.6006" width="0.563726" height="2.54003" transform="rotate(21.3902 1.29164 6.6006)" fill="#101014" stroke="#264EAB" stroke-width="0.563726"/>
<circle cx="26.0002" cy="3" r="0.5" stroke="#264EAB"/>
</svg>
