<svg width="24" height="24" viewBox="0 0 24 24" fill="none" xmlns="http://www.w3.org/2000/svg">
<g clip-path="url(#clip0_20_33)">
<path d="M2 5L2 6L0.999999 6C0.447999 6 -7.67222e-07 6.448 -7.43094e-07 7C-7.18965e-07 7.552 0.447999 8 0.999999 8L2 8L2 16L1 16C0.448 16 -3.30108e-07 16.448 -3.0598e-07 17C-2.81851e-07 17.552 0.448 18 1 18L2 18L2 19C2 21.757 4.243 24 7 24L19 24C21.757 24 24 21.757 24 19L24 5C24 2.243 21.757 -9.51029e-07 19 -8.30516e-07L7 -3.0598e-07C4.243 -1.85467e-07 2 2.243 2 5ZM4 19L4 5C4 3.346 5.346 2 7 2L8 2L8 22L7 22C5.346 22 4 20.654 4 19ZM22 5L22 19C22 20.654 20.654 22 19 22L10 22L10 2L19 2C20.654 2 22 3.346 22 5ZM15.352 7.603C15.731 7.603 16.05 7.867 16.218 8.169L17.088 9.733L18.981 9.039C19.348 8.905 19.759 9.026 19.994 9.338C20.234 9.657 20.231 10.097 19.987 10.413L18.784 11.969L19.987 13.525C20.231 13.841 20.234 14.281 19.994 14.6C19.759 14.912 19.348 15.033 18.981 14.899L17.088 14.205L16.218 15.769C16.05 16.071 15.731 16.335 15.352 16.335C15.031 16.335 14.676 16.056 14.676 15.604L14.676 13.357L12.393 12.761C12.031 12.667 11.779 12.342 11.772 11.969C11.779 11.596 12.031 11.271 12.393 11.177L14.676 10.581L14.676 8.334C14.676 7.882 15.03 7.603 15.352 7.603Z" fill="#264EAB"/>
</g>
<defs>
<clipPath id="clip0_20_33">
<rect width="24" height="24" fill="white" transform="translate(0 24) rotate(-90)"/>
</clipPath>
</defs>
</svg>
