<svg width="31" height="29" viewBox="0 0 31 29" fill="none" xmlns="http://www.w3.org/2000/svg">
<path d="M4.42361 8L5.83333 23.8M4.42361 8C4.42361 8 7.84722 9.6 15.5 9.6C23.1528 9.6 26.5764 8 26.5764 8M4.42361 8C4.42361 8 1 7 1 5.2C1 3.4 6.23611 1 15.5 1C24.7639 1 30 3.6 30 5.2C30 6.8 26.5764 8 26.5764 8M5.83333 23.8C5.83333 23.8 9.05556 26 15.5 26C21.9444 26 24.3611 23.8 24.3611 23.8M5.83333 23.8C5.83333 23.8 8.45139 28 15.5 28C22.5486 28 24.3611 23.8 24.3611 23.8M24.3611 23.8L26.5764 8" stroke="#264EAB"/>
</svg>
