<svg width="225" height="220" viewBox="0 0 225 220" fill="none" xmlns="http://www.w3.org/2000/svg">
<path d="M64.0461 77.866C64.0031 77.8444 63.9523 77.8447 63.9096 77.8669L0.930887 110.562C0.88119 110.587 0.85 110.639 0.85 110.695V187.667C0.85 187.723 0.88222 187.775 0.933184 187.801L63.9119 219.134C63.9534 219.155 64.0021 219.155 64.0438 219.135L129.065 187.808C129.117 187.783 129.15 187.731 129.15 187.673V110.691C129.15 110.634 129.118 110.582 129.068 110.557L123.449 107.714L123.449 107.714L64.0461 77.866ZM123.068 109.369L126.46 111.085L63.9893 141.183L60.611 139.502L123.068 109.369ZM121.209 108.436L58.7419 138.573L3.49688 111.087L63.9907 79.6833L121.209 108.436ZM70.2294 214.324V140.008L127.495 112.417V186.734L70.2294 214.324ZM64.8114 216.934V142.617L68.5749 140.803V215.121L64.8114 216.934ZM7.92249 115.131L63.1569 142.61V216.915L7.92249 189.436V115.131ZM2.5045 186.741V112.436L6.26799 114.308V188.613L2.5045 186.741Z" fill="#101014" stroke="black" stroke-width="0.3" stroke-linejoin="round"/>
<circle cx="177.5" cy="47.5" r="47.5" fill="white"/>
<mask id="mask0_85_421" style="mask-type:alpha" maskUnits="userSpaceOnUse" x="130" y="0" width="95" height="95">
<circle cx="177.5" cy="47.5" r="47.5" fill="white"/>
</mask>
<g mask="url(#mask0_85_421)">
<path d="M206.892 63.9035V98.1299L176.279 113M206.892 63.9035L176.279 78.4503M206.892 63.9035L210.597 48.7101M176.279 113V78.4503M176.279 113L146.634 98.1299V63.9035M176.279 78.4503L150.501 65.8009M176.279 78.4503L177.637 72.6316M146.634 63.9035L136 52.9125L165.646 37.3958L176.279 48.0635M146.634 63.9035L150.501 65.8009M146.634 63.9035L150.501 61.9639M210.597 48.7101L214.303 33.5167M210.597 48.7101L193.321 56.8815M176.279 48.0635L180.402 24.0247M176.279 48.0635L173.97 49.2973M176.279 48.0635L193.321 56.8815M214.303 33.5167L181.435 18L173.057 20.5861L180.402 24.0247M214.303 33.5167L206.892 36.426L180.402 24.0247M150.501 65.8009V58.0847L154.006 59.9641M177.637 72.6316L154.006 59.9641M177.637 72.6316L178.466 69.0757M154.006 59.9641V55.8219L157.856 57.9075M178.466 69.0757L157.856 57.9075M178.466 69.0757L179.447 64.8733M157.856 57.9075V53.559L161.457 55.446M179.447 64.8733L179.824 63.2569L182.402 62.0462M179.447 64.8733L161.457 55.446M161.457 55.446V50.6497L164.679 52.403M182.402 62.0462L164.679 52.403M182.402 62.0462L186.591 60.0648M164.679 52.403V48.0635L168.546 50.2426M168.546 50.2426V46.124L173.97 49.2973M168.546 50.2426L186.591 60.0648M173.97 49.2973L190.777 58.0847M186.591 60.0648L190.777 58.0847M190.777 58.0847L193.321 56.8815" stroke="black" stroke-width="1.6" stroke-linejoin="round"/>
</g>
</svg>
