<svg width="24" height="24" viewBox="0 0 24 24" fill="none" xmlns="http://www.w3.org/2000/svg">
<g clip-path="url(#clip0_921_1123)">
<path d="M11 0.999998C8.794 0.999998 7 2.794 7 5L5 5C2.243 5 -6.8876e-07 7.243 -5.68248e-07 10L-3.93403e-07 14C-2.7289e-07 16.757 2.243 19 5 19L7 19C7 21.206 8.794 23 11 23L16 23C16.017 23 16.035 23 16.052 22.999C17.682 22.971 19 21.637 19 20L19 13L22 13L22 17C22 17.552 22.447 18 23 18C23.553 18 24 17.552 24 17L24 7C24 6.448 23.553 6 23 6C22.447 6 22 6.448 22 7L22 11L19 11L19 4C19 2.363 17.682 1.029 16.052 1.001C16.035 1.001 16.018 0.999997 16 0.999997L11 0.999998ZM11 3L13.172 3C13.061 3.313 13 3.649 13 4L13 5L9 5C9 3.897 9.897 3 11 3ZM5 17C3.346 17 2 15.654 2 14L2 10C2 8.346 3.346 7 5 7L13 7L13 17L5 17ZM9 19L13 19L13 20C13 20.351 13.061 20.687 13.172 21L11 21C9.897 21 9 20.103 9 19ZM17 4L17 20C17 20.551 16.552 21 16 21C15.448 21 15 20.551 15 20L15 4C15 3.449 15.448 3 16 3C16.552 3 17 3.449 17 4Z" fill="#101014"/>
</g>
<defs>
<clipPath id="clip0_921_1123">
<rect width="24" height="24" fill="white" transform="translate(0 24) rotate(-90)"/>
</clipPath>
</defs>
</svg>
