<svg width="24" height="24" viewBox="0 0 24 24" fill="none" xmlns="http://www.w3.org/2000/svg">
<g clip-path="url(#clip0_19_25)">
<mask id="mask0_19_25" style="mask-type:luminance" maskUnits="userSpaceOnUse" x="0" y="0" width="24" height="24">
<path d="M0 0L0 24H24V0H0Z" fill="white"/>
</mask>
<g mask="url(#mask0_19_25)">
<path d="M11 1C8.794 1 7 2.794 7 5H5C2.243 5 -1.20512e-07 7.243 0 10L1.74845e-07 14C2.95358e-07 16.757 2.243 19 5 19H7C7 21.206 8.794 23 11 23H16C16.017 23 16.035 23 16.052 22.999C17.682 22.971 19 21.637 19 20V13H22V17C22 17.552 22.447 18 23 18C23.553 18 24 17.552 24 17V7C24 6.448 23.553 6 23 6C22.447 6 22 6.448 22 7V11H19V4C19 2.363 17.682 1.029 16.052 1.001C16.035 1.001 16.018 1 16 1L11 1ZM11 3H13.172C13.061 3.313 13 3.649 13 4V5H9C9 3.897 9.897 3 11 3ZM5 17C3.346 17 2 15.654 2 14V10C2 8.346 3.346 7 5 7H13V17H5ZM9 19H13V20C13 20.351 13.061 20.687 13.172 21H11C9.897 21 9 20.103 9 19ZM17 4V20C17 20.551 16.552 21 16 21C15.448 21 15 20.551 15 20V4C15 3.449 15.448 3 16 3C16.552 3 17 3.449 17 4Z" fill="#264EAB"/>
</g>
</g>
<defs>
<clipPath id="clip0_19_25">
<rect width="24" height="24" fill="white"/>
</clipPath>
</defs>
</svg>
