<svg width="47" height="47" viewBox="0 0 47 47" fill="none" xmlns="http://www.w3.org/2000/svg">
<g clip-path="url(#clip0_892_780)">
<path d="M17.233 13.3225C17.9242 13.8709 18.7526 14.145 19.583 14.145C20.4133 14.145 21.2417 13.8709 21.933 13.3225C24.0538 11.6403 27.4163 7.82354 27.4163 4.74896C27.4163 2.13067 25.4403 0 23.01 0C21.6607 0 20.4055 0.620792 19.583 1.55883C18.7605 0.620792 17.5052 0 16.1559 0C13.7256 0 11.7496 2.13067 11.7496 4.74896C11.7496 7.82354 15.1121 11.6403 17.233 13.3225ZM16.1559 1.95833C17.5345 1.95833 18.6038 3.06871 18.6038 4.02633C18.6038 4.56683 19.0425 5.0055 19.583 5.0055C20.1235 5.0055 20.5621 4.56683 20.5621 4.02633C20.5621 3.07067 21.6314 1.95833 23.01 1.95833C24.3593 1.95833 25.458 3.21167 25.458 4.74896C25.458 6.98342 22.6282 10.2695 20.7168 11.7892C20.049 12.3179 19.1169 12.3179 18.451 11.7892C16.5377 10.2715 13.708 6.98342 13.708 4.74896C13.708 3.21167 14.8066 1.95833 16.1559 1.95833ZM38.9705 25.4583H37.8797C37.9874 24.6397 38.0814 23.8368 38.1597 23.0653C38.2987 21.665 37.8425 20.2668 36.9044 19.2308C35.984 18.2125 34.668 17.6309 33.2972 17.6309L4.88958 17.625C3.51875 17.625 2.20275 18.2086 1.28037 19.2269C0.34233 20.2629 -0.11592 21.6611 0.0250804 23.0594C0.673289 29.565 2.48279 38.2032 4.55862 41.3953C6.84008 44.9046 10.7842 46.998 15.1101 46.998H23.0766C27.4026 46.998 31.3467 44.9046 33.6281 41.3953C34.0041 40.8175 34.3703 40.0558 34.7228 39.1647H38.9705C43.3219 39.1647 46.9996 35.6417 46.9996 31.4704C46.9996 27.7045 43.9975 25.4564 38.9705 25.4564V25.4583ZM23.0747 45.0417H15.1101C11.45 45.0417 8.11887 43.2811 6.19971 40.3299C4.58016 37.8409 2.68646 30.0075 1.97362 22.8655C1.88941 22.0156 2.16554 21.1696 2.73346 20.541C3.29158 19.9241 4.05729 19.5833 4.88958 19.5833L33.2972 19.5892C34.1275 19.5892 34.8932 19.93 35.4533 20.5468C36.0212 21.1715 36.2973 22.0195 36.2112 22.8714C35.5003 30.0095 33.6046 37.8409 31.987 40.3299C30.0679 43.2811 26.7367 45.0417 23.0766 45.0417H23.0747ZM38.9705 37.2083H35.4122C36.3013 34.3962 37.0611 30.8477 37.5957 27.4167H38.9705C41.2382 27.4167 45.0413 27.9454 45.0413 31.4724C45.0413 34.5293 42.2056 37.2083 38.9705 37.2083Z" fill="#101014"/>
</g>
<defs>
<clipPath id="clip0_892_780">
<rect width="47" height="47" fill="white"/>
</clipPath>
</defs>
</svg>
