<svg width="221" height="225" viewBox="0 0 221 225" fill="none" xmlns="http://www.w3.org/2000/svg">
<path d="M221 51.5C221 77.7335 199.734 99 173.5 99C147.266 99 126 77.7335 126 51.5C126 25.2665 147.266 4 173.5 4C199.734 4 221 25.2665 221 51.5Z" fill="white"/>
<path fill-rule="evenodd" clip-rule="evenodd" d="M173 72.7778C184.475 72.7778 193.778 63.4754 193.778 52C193.778 40.5246 184.475 31.2222 173 31.2222C161.525 31.2222 152.222 40.5246 152.222 52C152.222 63.4754 161.525 72.7778 173 72.7778ZM173 74C185.15 74 195 64.1501 195 52C195 39.8499 185.15 30 173 30C160.85 30 151 39.8499 151 52C151 64.1501 160.85 74 173 74Z" fill="#101014"/>
<path d="M171.786 47.5401C171.874 47.773 172.03 47.9738 172.234 48.1155C172.439 48.2572 172.682 48.3332 172.93 48.3333H173.07C173.318 48.3332 173.561 48.2572 173.766 48.1155C173.97 47.9738 174.126 47.773 174.214 47.5401L176.047 42.6512C176.116 42.4663 176.14 42.2674 176.115 42.0715C176.091 41.8756 176.02 41.6885 175.907 41.5262C175.795 41.3639 175.645 41.2312 175.47 41.1396C175.295 41.048 175.1 41.0001 174.903 41H171.097C170.9 41.0001 170.705 41.048 170.53 41.1396C170.355 41.2312 170.205 41.3639 170.093 41.5262C169.98 41.6885 169.909 41.8756 169.885 42.0715C169.86 42.2674 169.884 42.4663 169.953 42.6512L171.786 47.5401ZM168.54 53.2137C168.773 53.1264 168.974 52.9701 169.116 52.7656C169.257 52.5612 169.333 52.3184 169.333 52.0697V51.9303C169.333 51.6816 169.257 51.4388 169.116 51.2344C168.974 51.0299 168.773 50.8736 168.54 50.7863L163.651 48.953C163.466 48.8837 163.267 48.8602 163.072 48.8846C162.876 48.9089 162.688 48.9804 162.526 49.0928C162.364 49.2052 162.231 49.3553 162.14 49.5302C162.048 49.7051 162 49.8996 162 50.097V53.903C162 54.1004 162.048 54.2949 162.14 54.4698C162.231 54.6447 162.364 54.7948 162.526 54.9072C162.688 55.0196 162.876 55.0911 163.072 55.1154C163.267 55.1398 163.466 55.1163 163.651 55.047L168.54 53.2137ZM174.214 56.4599C174.126 56.227 173.97 56.0262 173.766 55.8845C173.561 55.7428 173.318 55.6668 173.07 55.6667H172.93C172.682 55.6668 172.439 55.7428 172.234 55.8845C172.03 56.0262 171.874 56.227 171.786 56.4599L169.953 61.3488C169.884 61.5337 169.86 61.7326 169.885 61.9285C169.909 62.1244 169.98 62.3115 170.093 62.4738C170.205 62.6361 170.355 62.7688 170.53 62.8604C170.705 62.952 170.9 62.9999 171.097 63H174.903C175.1 62.9999 175.295 62.952 175.47 62.8604C175.645 62.7688 175.795 62.6361 175.907 62.4738C176.02 62.3115 176.091 62.1244 176.115 61.9285C176.14 61.7326 176.116 61.5337 176.047 61.3488L174.214 56.4599ZM177.46 50.7863C177.227 50.8736 177.026 51.0299 176.884 51.2344C176.743 51.4388 176.667 51.6816 176.667 51.9303V52.0697C176.667 52.3184 176.743 52.5612 176.884 52.7656C177.026 52.9701 177.227 53.1264 177.46 53.2137L182.349 55.047C182.534 55.1163 182.733 55.1398 182.928 55.1154C183.124 55.0911 183.312 55.0196 183.474 54.9072C183.636 54.7948 183.769 54.6447 183.86 54.4698C183.952 54.2949 184 54.1004 184 53.903V50.097C184 49.8996 183.952 49.7051 183.86 49.5302C183.769 49.3553 183.636 49.2052 183.474 49.0928C183.312 48.9804 183.124 48.9089 182.928 48.8846C182.733 48.8602 182.534 48.8837 182.349 48.953L177.46 50.7863ZM174.833 52C174.833 52.4862 174.64 52.9525 174.296 53.2964C173.953 53.6402 173.486 53.8333 173 53.8333C172.514 53.8333 172.047 53.6402 171.704 53.2964C171.36 52.9525 171.167 52.4862 171.167 52C171.167 51.5138 171.36 51.0475 171.704 50.7036C172.047 50.3598 172.514 50.1667 173 50.1667C173.486 50.1667 173.953 50.3598 174.296 50.7036C174.64 51.0475 174.833 51.5138 174.833 52Z" fill="#101014"/>
<path d="M27.6869 223C78.5316 219.532 78.0139 219.009 112.051 216.555C112.574 216.518 113 216.081 113 215.556V129.345C113 129.214 112.974 129.083 112.924 128.962L97.2992 91.3151C97.2488 91.1936 97.2229 91.0634 97.2229 90.9318L97.2228 67.9245C97.2228 67.6668 97.1234 67.4191 96.9453 67.233L94.4853 64.663C94.1328 64.2947 94.1137 63.7202 94.441 63.3294L96.9895 60.2866C97.1402 60.1066 97.2228 59.8793 97.2228 59.6445V57C97.2228 56.4477 96.7751 56 96.2228 56H15.5952C15.0429 56 14.5952 56.4477 14.5952 57V59.6445C14.5952 59.8793 14.6778 60.1066 14.8286 60.2866L17.377 63.3294C17.7043 63.7202 17.6853 64.2947 17.3328 64.663L14.8728 67.233C14.6946 67.4191 14.5952 67.6668 14.5952 67.9245L14.5952 91.1311M27.6869 223L1 207.803M27.6869 223V133.972C27.6869 133.873 27.6721 133.774 27.6429 133.679L14.5952 91.1311M27.6869 223L14.5952 189M1 207.803V123.67C1 123.537 1.02657 123.405 1.07816 123.282L14.5952 91.1311M1 207.803L14.5952 189M14.5952 91.1311L14.5952 189" stroke="#101014" stroke-width="2"/>
<path d="M90 77L24 77" stroke="black" stroke-width="1.5" stroke-linecap="round"/>
<path d="M23.433 73.4H26.7371H34.3209H90.567C91.353 73.4 92.1194 73.7561 92.6936 74.4119C93.2692 75.0693 93.6 75.9711 93.6 76.9207V77.0793C93.6 78.0289 93.2692 78.9307 92.6936 79.5881C92.1194 80.2439 91.353 80.6 90.567 80.6H23.433C22.647 80.6 21.8806 80.2439 21.3064 79.5881C20.7308 78.9307 20.4 78.0289 20.4 77.0793V76.9207C20.4 75.9711 20.7308 75.0693 21.3064 74.4119C21.8806 73.7561 22.647 73.4 23.433 73.4Z" stroke="black" stroke-width="0.8"/>
</svg>
