<svg width="47" height="47" viewBox="0 0 47 47" fill="none" xmlns="http://www.w3.org/2000/svg">
<g clip-path="url(#clip0_892_768)">
<path d="M35.2499 17.6427C28.7659 17.6427 23.4921 24.2227 23.4921 32.3126C23.4921 40.4025 28.7659 46.9825 35.2499 46.9825C41.734 46.9825 47.0077 40.4025 47.0077 32.3126C47.0077 24.2227 41.734 17.6427 35.2499 17.6427ZM25.4504 32.3126C25.4504 25.6327 29.4434 20.1396 34.4959 19.6383C34.7055 19.9027 38.1619 24.4382 34.3784 31.87C31.1942 38.1171 32.5552 42.6918 33.6382 44.8518C28.9989 43.8511 25.4504 38.6106 25.4504 32.3126ZM36.0039 44.987C35.7943 44.7226 32.3379 40.1871 36.1214 32.7552C39.3056 26.5081 37.9446 21.9334 36.8616 19.7734C41.5009 20.7741 45.0494 26.0146 45.0494 32.3126C45.0494 38.9925 41.0564 44.4856 36.0039 44.987ZM24.5692 2.84557C19.9827 -1.74084 11.3778 -0.60501 5.38924 5.38945C-0.599344 11.38 -1.74105 19.9829 2.84732 24.5713C4.74495 26.4689 7.32799 27.3874 10.1304 27.3874C14.1038 27.3874 18.5159 25.5427 22.0272 22.0294C28.0158 16.0389 29.1575 7.43591 24.5692 2.84753V2.84557ZM6.77378 6.77399C9.91299 3.63282 13.8238 1.9702 17.2744 1.9702C19.2934 1.9702 21.1558 2.54007 22.6128 3.71703C22.5619 4.0852 21.6199 9.92886 13.3871 12.7822C6.43107 15.1929 4.03799 19.6187 3.23899 21.9491C0.673572 17.9208 2.06399 11.4799 6.77182 6.77399H6.77378ZM20.6427 20.6429C15.6666 25.621 8.75366 26.8919 4.80174 23.6999C4.85265 23.3376 5.7907 17.488 14.0274 14.6347C20.9834 12.224 23.3765 7.7982 24.1755 5.46778C26.7409 9.49607 25.3505 15.937 20.6427 20.6429Z" fill="#101014"/>
</g>
<defs>
<clipPath id="clip0_892_768">
<rect width="47" height="47" fill="white"/>
</clipPath>
</defs>
</svg>
