<svg width="22" height="24" viewBox="0 0 22 24" fill="none" xmlns="http://www.w3.org/2000/svg">
<path d="M10.9998 1.125C8.83101 1.125 6.71092 1.76281 4.90763 2.95777C3.10435 4.15273 1.69886 5.85117 0.868893 7.83832C0.038931 9.82546 -0.178225 12.0121 0.244886 14.1216C0.667997 16.2312 1.71237 18.1689 3.24594 19.6898C4.77951 21.2107 6.7334 22.2464 8.86052 22.666C10.9876 23.0857 13.1925 22.8703 15.1962 22.0472C17.1999 21.2241 18.9125 19.8302 20.1174 18.0418C21.3223 16.2534 21.9654 14.1509 21.9654 12C21.9654 9.11577 20.8101 6.34967 18.7537 4.31021C16.6972 2.27076 13.9081 1.125 10.9998 1.125ZM10.9998 22.125C8.98059 22.125 7.00671 21.5312 5.32779 20.4186C3.64886 19.3061 2.3403 17.7248 1.56758 15.8747C0.794854 14.0246 0.592674 11.9888 0.986605 10.0247C1.38054 8.06065 2.35289 6.25655 3.78069 4.84054C5.2085 3.42454 7.02763 2.46022 9.00806 2.06955C10.9885 1.67887 13.0412 1.87938 14.9068 2.64572C16.7723 3.41206 18.3668 4.7098 19.4886 6.37485C20.6104 8.0399 21.2092 9.99746 21.2092 12C21.2092 14.6853 20.1336 17.2607 18.2189 19.1595C16.3043 21.0583 13.7075 22.125 10.9998 22.125Z" fill="black"/>
<path d="M18.5631 14.3816C18.4693 14.3477 18.3658 14.3519 18.2751 14.3933C18.1844 14.4348 18.114 14.5101 18.0791 14.6029C18.0161 14.7704 17.948 14.9354 17.8749 15.0979C17.8543 15.1427 17.8428 15.1911 17.8411 15.2403C17.8393 15.2895 17.8474 15.3386 17.8647 15.3848C17.8821 15.4309 17.9085 15.4732 17.9424 15.5092C17.9762 15.5453 18.0169 15.5743 18.0621 15.5948C18.1073 15.6152 18.1561 15.6266 18.2057 15.6283C18.2553 15.6301 18.3048 15.6221 18.3514 15.6049C18.3979 15.5876 18.4405 15.5615 18.4769 15.5279C18.5132 15.4943 18.5425 15.454 18.5631 15.4091C18.6463 15.2316 18.7219 15.0504 18.79 14.8654C18.8074 14.8189 18.8154 14.7694 18.8134 14.7198C18.8114 14.6702 18.7995 14.6215 18.7784 14.5765C18.7573 14.5315 18.7274 14.4911 18.6905 14.4577C18.6535 14.4242 18.6102 14.3984 18.5631 14.3816Z" fill="black"/>
<path d="M6.99911 5.57254C7.06569 5.57186 7.13091 5.55375 7.18817 5.52004C7.49082 5.34477 7.80542 5.19064 8.1297 5.05879C8.17563 5.04008 8.2174 5.01258 8.25261 4.97786C8.28783 4.94314 8.3158 4.90188 8.33494 4.85643C8.35407 4.81099 8.364 4.76226 8.36414 4.71301C8.36429 4.66376 8.35465 4.61497 8.33578 4.56942C8.31691 4.52387 8.28918 4.48245 8.25417 4.44752C8.21916 4.4126 8.17755 4.38486 8.13173 4.36588C8.08591 4.3469 8.03677 4.33706 7.98711 4.33692C7.93746 4.33677 7.88826 4.34633 7.84233 4.36504C7.48541 4.51089 7.13921 4.6813 6.80626 4.87504C6.73502 4.91697 6.67963 4.98094 6.64861 5.05712C6.61758 5.1333 6.61265 5.21747 6.63455 5.29671C6.65646 5.37594 6.704 5.44585 6.76986 5.49568C6.83572 5.54551 6.91626 5.57252 6.99911 5.57254Z" fill="black"/>
<path d="M3.81544 8.65129C3.9042 8.69751 4.00783 8.70688 4.10355 8.67735C4.19927 8.64781 4.27925 8.58179 4.32591 8.49379C4.49026 8.18636 4.67599 7.89065 4.88175 7.60879C4.93561 7.52806 4.95591 7.42981 4.9384 7.33458C4.92089 7.23935 4.86692 7.15453 4.7878 7.09785C4.70867 7.04118 4.61051 7.01704 4.51385 7.0305C4.41719 7.04395 4.32953 7.09395 4.26919 7.17004C4.04249 7.48058 3.83781 7.80637 3.65663 8.14504C3.61002 8.23306 3.60057 8.33584 3.63035 8.43077C3.66013 8.5257 3.72671 8.60502 3.81544 8.65129Z" fill="black"/>
<path d="M5.26816 6.92596C5.3191 6.92577 5.36947 6.91537 5.41625 6.89539C5.46304 6.87542 5.50527 6.84627 5.54041 6.80971C5.78341 6.55839 6.04368 6.32408 6.31935 6.10846C6.39808 6.0468 6.44887 5.95664 6.46058 5.85784C6.47228 5.75903 6.44392 5.65966 6.38174 5.58158C6.31957 5.50351 6.22866 5.45313 6.12903 5.44153C6.0294 5.42992 5.9292 5.45805 5.85048 5.51971C5.54675 5.75728 5.25995 6.01539 4.99213 6.29221C4.94115 6.34525 4.90695 6.41195 4.89376 6.48406C4.88058 6.55616 4.88899 6.63052 4.91795 6.69794C4.94691 6.76536 4.99516 6.82289 5.05673 6.86341C5.1183 6.90393 5.19049 6.92568 5.26438 6.92596H5.26816Z" fill="black"/>
<path d="M3.10411 12.9338C3.20108 12.9224 3.28987 12.8743 3.35189 12.7996C3.41392 12.7248 3.44436 12.6291 3.43686 12.5325C3.43686 12.3575 3.43686 12.18 3.43686 12C3.43686 11.82 3.43686 11.65 3.43686 11.49C3.44308 11.3911 3.40959 11.2938 3.3437 11.2193C3.27781 11.1449 3.18488 11.0993 3.0852 11.0925C2.98549 11.0864 2.88736 11.1196 2.81226 11.1849C2.73716 11.2503 2.69119 11.3424 2.68439 11.4413C2.68439 11.6263 2.67809 11.8138 2.66548 12.0038C2.65288 12.1938 2.65918 12.3888 2.68439 12.5888C2.6911 12.6836 2.73388 12.7724 2.80408 12.8371C2.87428 12.9019 2.96665 12.9378 3.06251 12.9375L3.10411 12.9338Z" fill="black"/>
<path d="M3.14978 10.7439H3.22918C3.31711 10.7458 3.40298 10.7173 3.47199 10.6632C3.54101 10.6092 3.58886 10.5329 3.60731 10.4477C3.6792 10.1064 3.77523 9.77055 3.89468 9.44265C3.91322 9.396 3.92213 9.34614 3.92089 9.29602C3.91966 9.24589 3.9083 9.19653 3.88749 9.15083C3.86669 9.10514 3.83685 9.06404 3.79975 9.02998C3.76265 8.99592 3.71904 8.96959 3.6715 8.95253C3.62395 8.93548 3.57345 8.92806 3.52296 8.9307C3.47247 8.93334 3.42304 8.94599 3.37757 8.96791C3.3321 8.98983 3.29152 9.02058 3.25824 9.05832C3.22496 9.09606 3.19965 9.14004 3.18381 9.18765C3.05203 9.5486 2.94589 9.91825 2.86618 10.2939C2.85498 10.3419 2.85343 10.3917 2.86162 10.4403C2.86981 10.4889 2.88758 10.5354 2.91392 10.5772C2.94026 10.619 2.97465 10.6552 3.01512 10.6838C3.05559 10.7124 3.10135 10.7328 3.14978 10.7439Z" fill="black"/>
<path d="M9.03698 4.74347C9.06837 4.74739 9.10013 4.74739 9.13151 4.74347C9.47206 4.65717 9.81825 4.59452 10.1676 4.55597C10.2172 4.55056 10.2653 4.53549 10.3091 4.51164C10.3529 4.48779 10.3915 4.45562 10.4228 4.41697C10.454 4.37832 10.4773 4.33394 10.4912 4.28637C10.5052 4.2388 10.5096 4.18897 10.5041 4.13972C10.4986 4.09048 10.4835 4.04278 10.4594 3.99936C10.4354 3.95593 10.4029 3.91763 10.3639 3.88664C10.325 3.85565 10.2802 3.83257 10.2323 3.81873C10.1843 3.80489 10.134 3.80056 10.0844 3.80597C9.702 3.84738 9.32296 3.91504 8.95001 4.00847C8.84973 4.0209 8.75853 4.07234 8.69648 4.15145C8.63443 4.23057 8.60662 4.33089 8.61916 4.43035C8.63169 4.5298 8.68355 4.62025 8.76333 4.68178C8.8431 4.74332 8.94426 4.7709 9.04455 4.75847L9.03698 4.74347Z" fill="black"/>
<path d="M3.89159 14.5689C3.77125 14.2422 3.67396 13.9077 3.60044 13.5676C3.59001 13.5184 3.5699 13.4716 3.54126 13.4301C3.51263 13.3886 3.47602 13.353 3.43354 13.3255C3.39105 13.298 3.34352 13.2791 3.29365 13.2698C3.24378 13.2605 3.19256 13.261 3.1429 13.2714C3.09325 13.2817 3.04613 13.3016 3.00425 13.33C2.96236 13.3584 2.92653 13.3947 2.89879 13.4369C2.87105 13.479 2.85195 13.5262 2.84258 13.5756C2.83321 13.6251 2.83376 13.6759 2.84419 13.7251C2.9239 14.0995 3.03003 14.4679 3.16181 14.8276C3.18823 14.9001 3.23653 14.9627 3.30013 15.007C3.36373 15.0513 3.43954 15.0751 3.51725 15.0751C3.57795 15.0751 3.63776 15.0606 3.69161 15.0328C3.74546 15.005 3.79178 14.9648 3.82664 14.9155C3.8615 14.8662 3.88389 14.8093 3.8919 14.7496C3.89992 14.6899 3.89332 14.6292 3.87268 14.5726L3.89159 14.5689Z" fill="black"/>
<path d="M17.3791 7.96508C17.4333 8.04912 17.5189 8.10838 17.6171 8.12983C17.7153 8.15128 17.8181 8.13316 17.9028 8.07945C17.9876 8.02575 18.0473 7.94086 18.069 7.84346C18.0906 7.74605 18.0723 7.64412 18.0182 7.56008C17.8102 7.2374 17.5803 6.92918 17.33 6.63758C17.2648 6.5615 17.1718 6.51421 17.0715 6.50612C16.9711 6.49803 16.8717 6.52981 16.7949 6.59445C16.7182 6.6591 16.6705 6.75132 16.6624 6.85084C16.6542 6.95035 16.6863 7.049 16.7514 7.12508C16.9799 7.39043 17.1896 7.6711 17.3791 7.96508Z" fill="black"/>
<path d="M13.2686 4.84892C13.6035 4.95109 13.9307 5.0764 14.248 5.22392C14.2931 5.24938 14.3431 5.26535 14.3947 5.27083C14.4463 5.27631 14.4985 5.27119 14.5481 5.25577C14.5976 5.24036 14.6435 5.21499 14.6827 5.18124C14.7219 5.14749 14.7537 5.10609 14.7761 5.05962C14.7985 5.01315 14.811 4.96261 14.8128 4.91114C14.8146 4.85967 14.8058 4.80838 14.7867 4.76046C14.7677 4.71255 14.7389 4.66903 14.7021 4.63264C14.6654 4.59624 14.6215 4.56774 14.5732 4.54892C14.2304 4.38395 13.8766 4.24237 13.5144 4.12517C13.4186 4.09533 13.3148 4.10444 13.2258 4.15051C13.1368 4.19657 13.0699 4.27581 13.0399 4.37079C13.0098 4.46577 13.019 4.56871 13.0654 4.65697C13.1119 4.74523 13.1918 4.81158 13.2875 4.84142L13.2686 4.84892Z" fill="black"/>
<path d="M11.2157 4.50002C11.5667 4.50985 11.9167 4.54368 12.2631 4.60127H12.3274C12.4277 4.60972 12.5272 4.57832 12.6042 4.51397C12.6811 4.44962 12.7291 4.3576 12.7376 4.25814C12.7462 4.15869 12.7145 4.05995 12.6496 3.98364C12.5847 3.90734 12.4919 3.85972 12.3917 3.85127C12.0165 3.78842 11.6375 3.75084 11.2573 3.73877C11.157 3.73877 11.0608 3.77828 10.9899 3.8486C10.919 3.91893 10.8792 4.01431 10.8792 4.11377C10.8757 4.20839 10.9085 4.3008 10.9709 4.37245C11.0333 4.44409 11.1208 4.48967 11.2157 4.50002Z" fill="black"/>
<path d="M15.178 5.74511C15.4709 5.93583 15.7501 6.14633 16.0137 6.37511C16.0509 6.40785 16.0943 6.43301 16.1414 6.44913C16.1884 6.46525 16.2382 6.47202 16.2879 6.46906C16.3376 6.4661 16.3862 6.45347 16.4309 6.43188C16.4757 6.41029 16.5157 6.38017 16.5488 6.34323C16.5818 6.3063 16.6071 6.26327 16.6234 6.21662C16.6396 6.16996 16.6465 6.12059 16.6435 6.07132C16.6405 6.02204 16.6278 5.97384 16.606 5.92945C16.5842 5.88506 16.5539 5.84535 16.5166 5.81261C16.2268 5.55954 15.9198 5.32649 15.5978 5.11511C15.514 5.05991 15.4116 5.03996 15.313 5.05965C15.2145 5.07934 15.1278 5.13706 15.0722 5.22011C15.0165 5.30315 14.9964 5.40472 15.0163 5.50248C15.0361 5.60023 15.0943 5.68616 15.178 5.74136V5.74511Z" fill="black"/>
<path d="M16.0283 17.6026C15.7662 17.8339 15.4883 18.0469 15.1964 18.2401C15.1522 18.266 15.1137 18.3006 15.0834 18.3418C15.0531 18.383 15.0316 18.4299 15.0202 18.4797C15.0088 18.5294 15.0077 18.5809 15.017 18.631C15.0264 18.6812 15.046 18.7289 15.0745 18.7713C15.1031 18.8137 15.1401 18.8499 15.1833 18.8776C15.2264 18.9053 15.2748 18.924 15.3255 18.9326C15.3762 18.9411 15.4282 18.9393 15.4781 18.9273C15.5281 18.9152 15.5751 18.8932 15.6162 18.8626C15.9372 18.6501 16.2429 18.4158 16.5312 18.1613C16.6 18.0937 16.64 18.0024 16.6429 17.9064C16.6459 17.8104 16.6116 17.717 16.5471 17.6453C16.4826 17.5736 16.3928 17.5293 16.2963 17.5213C16.1998 17.5134 16.1038 17.5424 16.0283 17.6026Z" fill="black"/>
<path d="M14.2829 18.7497C13.9669 18.8969 13.6409 19.0222 13.3073 19.1247C13.2577 19.1397 13.2115 19.1643 13.1714 19.197C13.1313 19.2297 13.0981 19.2699 13.0737 19.3154C13.0493 19.3608 13.0342 19.4106 13.0292 19.4618C13.0242 19.5131 13.0294 19.5648 13.0445 19.6141C13.0597 19.6633 13.0845 19.7091 13.1175 19.7489C13.1505 19.7886 13.191 19.8215 13.2368 19.8457C13.2827 19.8699 13.3328 19.8849 13.3845 19.8899C13.4362 19.8949 13.4883 19.8897 13.538 19.8747C13.9055 19.7585 14.2643 19.6169 14.6119 19.4509C14.658 19.4304 14.6994 19.4009 14.7339 19.3642C14.7683 19.3274 14.7949 19.2843 14.8122 19.2372C14.8295 19.1901 14.8371 19.14 14.8345 19.0899C14.8319 19.0399 14.8193 18.9908 14.7973 18.9457C14.7753 18.9006 14.7444 18.8603 14.7064 18.8272C14.6685 18.7941 14.6242 18.7689 14.5763 18.7531C14.5283 18.7372 14.4776 18.7311 14.4272 18.735C14.3769 18.739 14.3278 18.7529 14.2829 18.7759V18.7497Z" fill="black"/>
<path d="M17.9121 15.9C17.8702 15.8736 17.8234 15.8557 17.7745 15.8473C17.7255 15.8389 17.6754 15.8401 17.627 15.8509C17.5785 15.8617 17.5327 15.8819 17.4921 15.9102C17.4515 15.9386 17.4169 15.9746 17.3903 16.0162C17.2017 16.3168 16.992 16.6037 16.7626 16.875C16.6975 16.9506 16.6652 17.0487 16.673 17.1479C16.6808 17.2471 16.728 17.3391 16.8042 17.4037C16.8805 17.4684 16.9794 17.5004 17.0794 17.4926C17.1794 17.4849 17.2722 17.4381 17.3374 17.3625C17.5879 17.0711 17.8179 16.7628 18.0256 16.44C18.056 16.3978 18.0773 16.3499 18.088 16.2992C18.0988 16.2484 18.0989 16.1961 18.0882 16.1453C18.0776 16.0946 18.0564 16.0466 18.0261 16.0044C17.9958 15.9621 17.957 15.9266 17.9121 15.9Z" fill="black"/>
<path d="M12.2859 19.3913C11.9396 19.4503 11.5896 19.4854 11.2385 19.4963C11.1382 19.4963 11.042 19.5358 10.9711 19.6061C10.9002 19.6765 10.8604 19.7718 10.8604 19.8713C10.8604 19.9708 10.9002 20.0661 10.9711 20.1365C11.042 20.2068 11.1382 20.2463 11.2385 20.2463C11.6187 20.2343 11.9977 20.1967 12.3729 20.1338C12.4225 20.1254 12.47 20.1074 12.5127 20.0809C12.5553 20.0543 12.5923 20.0196 12.6214 19.9789C12.6505 19.9381 12.6713 19.8921 12.6825 19.8434C12.6937 19.7947 12.6951 19.7443 12.6867 19.695C12.6783 19.6458 12.6601 19.5987 12.6333 19.5564C12.6065 19.5141 12.5716 19.4775 12.5305 19.4486C12.4894 19.4197 12.443 19.3991 12.3939 19.3879C12.3448 19.3768 12.2939 19.3754 12.2443 19.3838L12.2859 19.3913Z" fill="black"/>
<path d="M10.1867 19.4588C9.83747 19.4214 9.49128 19.36 9.15063 19.2751C9.05335 19.2507 8.9503 19.2657 8.86414 19.3167C8.77798 19.3677 8.71578 19.4505 8.69121 19.547C8.66664 19.6434 8.68172 19.7456 8.73313 19.8311C8.78454 19.9165 8.86807 19.9782 8.96535 20.0026C9.33834 20.0958 9.71736 20.1635 10.0997 20.2051H10.1413C10.2416 20.2106 10.34 20.1763 10.4148 20.1098C10.4896 20.0434 10.5347 19.9502 10.5402 19.8507C10.5458 19.7513 10.5112 19.6537 10.4442 19.5795C10.3772 19.5053 10.2832 19.4606 10.1829 19.4551L10.1867 19.4588Z" fill="black"/>
<path d="M5.55494 17.205C5.48524 17.1334 5.38972 17.0921 5.28938 17.0904C5.18904 17.0886 5.0921 17.1265 5.01989 17.1956C4.94769 17.2647 4.90613 17.3595 4.90436 17.459C4.90258 17.5585 4.94074 17.6546 5.01044 17.7262C5.27833 18.0018 5.56513 18.2587 5.86879 18.495C5.94806 18.5476 6.04448 18.5686 6.1387 18.5537C6.23292 18.5388 6.31797 18.4891 6.37681 18.4146C6.43565 18.3402 6.46393 18.2464 6.45596 18.1521C6.448 18.0578 6.40439 17.97 6.33388 17.9062C6.05827 17.6905 5.798 17.4562 5.55494 17.205Z" fill="black"/>
<path d="M8.14894 18.9488C7.82872 18.8175 7.51793 18.6647 7.21875 18.4913C7.17704 18.4547 7.12767 18.4276 7.07418 18.4121C7.02069 18.3965 6.9644 18.3929 6.90934 18.4015C6.85428 18.4101 6.80181 18.4306 6.75569 18.4616C6.70956 18.4927 6.67093 18.5334 6.64255 18.581C6.61416 18.6286 6.59674 18.6818 6.59151 18.7368C6.58628 18.7918 6.59339 18.8473 6.61232 18.8993C6.63125 18.9513 6.66153 18.9985 6.701 19.0375C6.74047 19.0766 6.78815 19.1065 6.84063 19.1251C7.17496 19.3176 7.52242 19.4867 7.88047 19.6313C7.97174 19.6617 8.07127 19.6564 8.15874 19.6165C8.24622 19.5767 8.31506 19.5052 8.35123 19.4167C8.38741 19.3282 8.38818 19.2294 8.3534 19.1403C8.31862 19.0513 8.25091 18.9788 8.16407 18.9376L8.14894 18.9488Z" fill="black"/>
<path d="M4.87779 16.4063C4.67203 16.1244 4.4863 15.8287 4.32194 15.5213C4.29861 15.4777 4.26684 15.4391 4.22846 15.4077C4.19008 15.3763 4.14584 15.3527 4.09826 15.3383C4.00218 15.3091 3.89834 15.3189 3.80958 15.3657C3.76564 15.3888 3.72672 15.4203 3.69505 15.4584C3.66338 15.4964 3.63958 15.5403 3.62501 15.5875C3.59558 15.6828 3.60553 15.7858 3.65266 15.8738C3.83399 16.2112 4.03867 16.5357 4.26522 16.845C4.29452 16.8849 4.33145 16.9187 4.37391 16.9444C4.41637 16.9702 4.46353 16.9874 4.51268 16.995C4.56184 17.0027 4.61204 17.0007 4.66041 16.9891C4.70878 16.9775 4.75438 16.9566 4.7946 16.9276C4.83482 16.8985 4.86888 16.8619 4.89483 16.8198C4.92078 16.7777 4.93811 16.7309 4.94583 16.6821C4.95356 16.6334 4.95152 16.5836 4.93985 16.5356C4.92817 16.4877 4.90708 16.4424 4.87779 16.4026V16.4063Z" fill="black"/>
<path d="M17.8896 8.90242C17.9627 9.06492 18.0307 9.22992 18.0937 9.39742C18.1109 9.44371 18.137 9.48621 18.1707 9.52247C18.2044 9.55874 18.245 9.58807 18.2901 9.60879C18.3352 9.62951 18.384 9.64121 18.4337 9.64323C18.4834 9.64524 18.533 9.63754 18.5796 9.62055C18.6263 9.60356 18.6692 9.57762 18.7057 9.54421C18.7423 9.5108 18.7719 9.47057 18.7928 9.42582C18.8137 9.38108 18.8255 9.33269 18.8275 9.28342C18.8295 9.23415 18.8218 9.18497 18.8046 9.13867C18.7366 8.95367 18.6609 8.77242 18.5777 8.59492C18.5571 8.55011 18.5278 8.50976 18.4915 8.47618C18.4552 8.4426 18.4125 8.41644 18.366 8.3992C18.3195 8.38197 18.27 8.37399 18.2204 8.37572C18.1707 8.37745 18.1219 8.38886 18.0767 8.4093C18.0315 8.42974 17.9909 8.4588 17.957 8.49483C17.9231 8.53086 17.8968 8.57315 17.8794 8.61929C17.862 8.66543 17.854 8.71451 17.8557 8.76374C17.8574 8.81296 17.869 8.86136 17.8896 8.90617V8.90242Z" fill="black"/>
<path d="M18.9402 10.5H16.4597C16.0938 9.18855 15.2609 8.05309 14.1155 7.30402C12.97 6.55495 11.5896 6.24307 10.23 6.42617C8.87038 6.60926 7.6238 7.27493 6.72123 8.2998C5.81866 9.32468 5.32129 10.6393 5.32129 12C5.32129 13.3607 5.81866 14.6754 6.72123 15.7002C7.6238 16.7251 8.87038 17.3908 10.23 17.5739C11.5896 17.757 12.97 17.4451 14.1155 16.696C15.2609 15.9469 16.0938 14.8115 16.4597 13.5H18.9402C19.3413 13.5 19.726 13.342 20.0097 13.0607C20.2933 12.7794 20.4527 12.3978 20.4527 12C20.4527 11.6022 20.2933 11.2207 20.0097 10.9394C19.726 10.658 19.3413 10.5 18.9402 10.5ZM10.9995 16.875C10.0273 16.875 9.07692 16.5891 8.26855 16.0534C7.46018 15.5178 6.83014 14.7564 6.45808 13.8656C6.08603 12.9748 5.98869 11.9946 6.17836 11.0489C6.36803 10.1033 6.83619 9.23465 7.52366 8.55287C8.21112 7.87109 9.087 7.40679 10.0405 7.21869C10.9941 7.03058 11.9824 7.12712 12.8807 7.4961C13.7789 7.86508 14.5466 8.48992 15.0867 9.29161C15.6269 10.0933 15.9152 11.0358 15.9152 12C15.9152 13.2929 15.3973 14.5329 14.4754 15.4472C13.5535 16.3614 12.3032 16.875 10.9995 16.875ZM19.4733 12.5288C19.3321 12.6696 19.1404 12.7492 18.9402 12.75H16.6147C16.69 12.2528 16.69 11.7472 16.6147 11.25H18.9402C19.0893 11.2506 19.2349 11.295 19.3586 11.3774C19.4824 11.4599 19.5789 11.5768 19.6358 11.7134C19.6928 11.8501 19.7078 12.0004 19.6789 12.1455C19.65 12.2905 19.5784 12.4239 19.4733 12.5288Z" fill="black"/>
<path d="M10.0845 7.875C9.98427 7.875 9.88809 7.91451 9.81717 7.98483C9.74626 8.05516 9.70642 8.15054 9.70642 8.25C9.70642 8.34946 9.74626 8.44484 9.81717 8.51517C9.88809 8.58549 9.98427 8.625 10.0845 8.625C11.0289 8.62599 11.9343 8.99848 12.6021 9.66074C13.2699 10.323 13.6455 11.2209 13.6465 12.1575C13.6455 12.8862 13.3532 13.5848 12.8336 14.1001C12.314 14.6153 11.6096 14.9053 10.8748 14.9062C10.5933 14.9062 10.3145 14.8513 10.0544 14.7444C9.79425 14.6375 9.5579 14.4809 9.35882 14.2835C9.15973 14.086 9.00181 13.8516 8.89406 13.5937C8.78632 13.3357 8.73086 13.0592 8.73086 12.78C8.73186 12.3497 8.90468 11.9372 9.21151 11.6329C9.51835 11.3286 9.93422 11.1572 10.3681 11.1562C10.6948 11.1562 11.0081 11.2844 11.2398 11.5128C11.4715 11.7411 11.6026 12.0511 11.6046 12.375C11.6036 12.6144 11.5073 12.8437 11.3366 13.013C11.1659 13.1822 10.9347 13.2778 10.6933 13.2787C10.5198 13.2787 10.3535 13.2104 10.2308 13.0887C10.1081 12.9671 10.0392 12.8021 10.0392 12.63C10.0402 12.5129 10.0875 12.401 10.171 12.3182C10.2544 12.2354 10.3673 12.1885 10.4854 12.1875C10.5606 12.1875 10.6327 12.2171 10.6859 12.2699C10.7391 12.3226 10.769 12.3942 10.769 12.4688C10.769 12.5682 10.8088 12.6636 10.8797 12.7339C10.9506 12.8042 11.0468 12.8438 11.1471 12.8438C11.2474 12.8438 11.3435 12.8042 11.4145 12.7339C11.4854 12.6636 11.5252 12.5682 11.5252 12.4688C11.5252 12.1952 11.4157 11.9329 11.2206 11.7395C11.0256 11.5461 10.7611 11.4375 10.4854 11.4375C10.1668 11.4385 9.8615 11.5644 9.63621 11.7879C9.41093 12.0113 9.28392 12.314 9.28292 12.63C9.28292 13.001 9.43152 13.3567 9.69602 13.6191C9.96053 13.8814 10.3193 14.0287 10.6933 14.0287C11.1353 14.0278 11.5588 13.8532 11.8714 13.5433C12.1839 13.2334 12.3599 12.8133 12.3609 12.375C12.3609 11.8509 12.1509 11.3482 11.7772 10.9776C11.4035 10.607 10.8966 10.3987 10.3681 10.3987C10.0533 10.3992 9.74168 10.4612 9.45102 10.5812C9.16035 10.7011 8.89635 10.8766 8.67409 11.0978C8.45183 11.3189 8.27567 11.5812 8.15565 11.8699C8.03563 12.1585 7.97412 12.4678 7.97461 12.78C7.97461 13.5428 8.28017 14.2744 8.82407 14.8138C9.36796 15.3532 10.1056 15.6562 10.8748 15.6562C11.8102 15.6553 12.7069 15.2863 13.3683 14.6304C14.0297 13.9745 14.4017 13.0851 14.4027 12.1575C14.4017 11.022 13.9465 9.93332 13.1369 9.13041C12.3273 8.3275 11.2295 7.87599 10.0845 7.875Z" fill="black"/>
</svg>
