<svg width="24" height="34" viewBox="0 0 24 34" fill="none" xmlns="http://www.w3.org/2000/svg">
<g clip-path="url(#clip0_9_4)">
<path d="M23.2039 23.7743L23.5004 23.5717L23.787 23.788C29.0633 27.7683 35.6465 30.1361 42.7761 30.1361H371.009C388.401 30.1361 402.495 16.0755 402.495 -1.25768V-51.8853C402.495 -69.2231 388.401 -83.2791 371.009 -83.2791H42.7761C25.3893 -83.2791 11.2902 -69.223 11.2948 -51.8854V-1.253C11.2948 11.5753 8.57999 20.5184 5.84894 26.2672C4.48392 29.1406 3.11624 31.2131 2.08478 32.5718C1.83875 32.8959 1.61185 33.1794 1.40872 33.4234C1.55685 33.3893 1.71512 33.3521 1.88309 33.3116C3.14459 33.0072 4.9527 32.5169 7.13037 31.7745C11.4871 30.2893 17.3153 27.7979 23.2039 23.7743Z" fill="#264EAB" stroke="white"/>
</g>
<defs>
<clipPath id="clip0_9_4">
<rect width="24" height="34" fill="white"/>
</clipPath>
</defs>
</svg>
