<svg width="20" height="22" viewBox="0 0 20 22" fill="none" xmlns="http://www.w3.org/2000/svg">
<g clip-path="url(#clip0_987_189)">
<path d="M20 7.79199V14.2087C20 16.4829 18.3175 18.3337 16.25 18.3337H10.4167V21.0837H13.3333C13.5633 21.0837 13.75 21.289 13.75 21.542C13.75 21.795 13.5633 22.0003 13.3333 22.0003H6.66667C6.43667 22.0003 6.25 21.795 6.25 21.542C6.25 21.289 6.43667 21.0837 6.66667 21.0837H9.58333V18.3337H3.75C1.6825 18.3337 0 16.4829 0 14.2087V5.95865C0 3.6844 1.6825 1.83365 3.75 1.83365H12.0833C12.3133 1.83365 12.5 2.03899 12.5 2.29199C12.5 2.54499 12.3133 2.75032 12.0833 2.75032H3.75C2.14167 2.75032 0.833333 4.18949 0.833333 5.95865V14.2087C0.833333 15.9778 2.14167 17.417 3.75 17.417H16.25C17.8583 17.417 19.1667 15.9778 19.1667 14.2087V7.79199C19.1667 7.53899 19.3533 7.33365 19.5833 7.33365C19.8133 7.33365 20 7.53899 20 7.79199ZM9.36833 9.19357C15.9125 0.81707 15.9408 0.784069 15.955 0.768486C16.8875 -0.254514 18.4025 -0.254514 19.3317 0.770319C20.26 1.79424 20.26 3.46165 19.3317 4.48465L12.4808 12.5752C12.4408 13.3048 12.1908 13.9914 11.7333 14.5414C11.1825 15.2042 10.3975 15.5846 9.58167 15.5846H6.24833C5.84417 15.5846 5.475 15.3792 5.23667 15.0236C4.9975 14.6661 4.92917 14.2178 5.04917 13.7925C5.46583 12.3167 6.74833 9.6959 8.90917 9.23665C9.06083 9.20457 9.21417 9.2009 9.36667 9.19449L9.36833 9.19357ZM10.36 9.33107C10.7108 9.44657 11.0483 9.61615 11.3483 9.86365C11.83 10.2633 12.17 10.7904 12.35 11.3835L14.0708 9.35215C13.7975 8.26682 12.93 7.45832 11.9075 7.35015C11.3617 8.04957 10.8317 8.72699 10.36 9.33107ZM11.6575 12.1636C11.6075 11.5457 11.32 10.9893 10.8458 10.5961C10.335 10.1717 9.68667 10.003 9.06833 10.1359C7.29333 10.5127 6.2075 12.7814 5.84583 14.0629C5.805 14.2068 5.82833 14.3581 5.90833 14.4782C5.98833 14.5973 6.11333 14.6661 6.24917 14.6661H9.5825C10.1658 14.6661 10.7258 14.3947 11.12 13.9217C11.5192 13.4423 11.71 12.8172 11.6575 12.1636ZM12.5325 6.5499C13.4958 6.83957 14.2992 7.59765 14.7075 8.60049L18.7317 3.84849C19.3458 3.17015 19.3458 2.08482 18.7417 1.41749C18.1358 0.751069 17.15 0.750153 16.5442 1.41749C16.4867 1.4899 14.5075 4.02174 12.5325 6.5499Z" fill="#101014"/>
</g>
<defs>
<clipPath id="clip0_987_189">
<rect width="20" height="22" fill="white"/>
</clipPath>
</defs>
</svg>
