<svg width="52" height="52" viewBox="0 0 52 52" fill="none" xmlns="http://www.w3.org/2000/svg">
<path d="M10.8339 11.9167V7.58333C10.8339 3.40167 14.2355 0 18.4172 0H22.7505C23.3485 0 23.8339 0.485333 23.8339 1.08333C23.8339 1.68133 23.3485 2.16667 22.7505 2.16667H18.4172C15.4294 2.16667 13.0005 4.5955 13.0005 7.58333V11.9167C13.0005 12.5147 12.5152 13 11.9172 13C11.3192 13 10.8339 12.5147 10.8339 11.9167ZM50.9172 28.1667C50.3192 28.1667 49.8339 28.652 49.8339 29.25V33.5833C49.8339 36.5712 47.405 39 44.4172 39H40.0839C39.4859 39 39.0005 39.4853 39.0005 40.0833C39.0005 40.6813 39.4859 41.1667 40.0839 41.1667H44.4172C48.5989 41.1667 52.0005 37.765 52.0005 33.5833V29.25C52.0005 28.652 51.5152 28.1667 50.9172 28.1667ZM44.4172 0H40.0839C39.4859 0 39.0005 0.485333 39.0005 1.08333C39.0005 1.68133 39.4859 2.16667 40.0839 2.16667H44.4172C47.405 2.16667 49.8339 4.5955 49.8339 7.58333V11.9167C49.8339 12.5147 50.3192 13 50.9172 13C51.5152 13 52.0005 12.5147 52.0005 11.9167V7.58333C52.0005 3.40167 48.5989 0 44.4172 0ZM38.0277 29.3952L33.2632 28.9077L31.0402 33.306C30.5484 34.2875 29.543 34.8942 28.4619 34.8942C28.3362 34.8942 28.2127 34.8855 28.087 34.8703C26.8694 34.7122 25.8835 33.8 25.63 32.5997L24.8089 28.7213L1.85088 51.6837C1.63854 51.896 1.36121 52 1.08388 52C0.806542 52 0.529208 51.8938 0.316875 51.6837C-0.105625 51.2612 -0.105625 50.5743 0.316875 50.1518L23.238 27.2307L19.4702 26.4832C18.9069 26.3748 18.3934 26.0997 17.9839 25.6923C17.5462 25.2547 17.2559 24.674 17.167 24.0587C16.9915 22.8453 17.6047 21.6515 18.6924 21.0838L23.0994 18.7742L22.6075 13.988C22.5079 12.7638 23.1774 11.6133 24.2737 11.1063C25.3679 10.6037 26.6765 10.8355 27.5302 11.6848L30.8279 14.9847L35.3064 12.8592C36.407 12.3565 37.7135 12.5905 38.565 13.4398C39.4187 14.2892 39.6527 15.5935 39.15 16.6877L37.0202 21.177L40.3179 24.4725C41.1759 25.3305 41.4055 26.6457 40.8942 27.7398C40.385 28.8362 39.2172 29.4862 38.0255 29.3995L38.0277 29.3952ZM38.7882 26L34.951 22.165C34.6282 21.8422 34.5437 21.3482 34.7365 20.9365L37.1892 15.7668C37.3105 15.5047 37.2499 15.1797 37.0397 14.9695C36.8252 14.755 36.5002 14.6965 36.225 14.8222L31.0684 17.2683C30.6545 17.4655 30.1627 17.3767 29.8399 17.0538L26.0027 13.2167C25.8662 13.0802 25.6777 13.0043 25.4892 13.0043C25.3852 13.0043 25.2812 13.0282 25.1859 13.0715C24.9107 13.1993 24.7439 13.4853 24.7677 13.7887L25.3332 19.279C25.3787 19.7188 25.1512 20.1413 24.759 20.3472L19.6999 23.0013C19.4247 23.1443 19.2709 23.4455 19.3142 23.7488C19.3359 23.907 19.4074 24.05 19.5179 24.1583C19.6197 24.2602 19.7475 24.3295 19.8884 24.3555L25.669 25.5017C26.0959 25.5862 26.4317 25.9155 26.5205 26.3402L27.749 32.1555C27.8119 32.4567 28.061 32.6842 28.3644 32.7253C28.672 32.7687 28.9645 32.6105 29.1032 32.3353L31.6664 27.2675C31.87 26.8667 32.299 26.624 32.7432 26.6803L38.2314 27.2415C38.5499 27.248 38.8077 27.0985 38.9312 26.8255C39.0634 26.5482 39.0027 26.2188 38.7882 26.0022V26Z" fill="#101014"/>
</svg>
