<svg width="52" height="48" viewBox="0 0 52 48" fill="none" xmlns="http://www.w3.org/2000/svg">
<path d="M42.25 11H36.8333V9.91663C36.8333 4.54113 32.4588 0.166626 27.0833 0.166626H9.75C4.3745 0.166626 0 4.54113 0 9.91663V12.0833C0 12.6813 0.485333 13.1666 1.08333 13.1666C1.68133 13.1666 2.16667 12.6813 2.16667 12.0833V9.91663C2.16667 5.73496 5.56833 2.33329 9.75 2.33329H27.0833C31.265 2.33329 34.6667 5.73496 34.6667 9.91663V37H7.58333C4.59767 37 2.16667 34.5711 2.16667 31.5833V25.0833C2.16667 24.4853 1.68133 24 1.08333 24C0.485333 24 0 24.4853 0 25.0833V31.5833C0 34.8311 2.06267 37.5871 4.94 38.664C4.55217 39.5025 4.33333 40.4016 4.33333 41.3333C4.33333 44.917 7.24967 47.8333 10.8333 47.8333C14.417 47.8333 17.3333 44.917 17.3333 41.3333C17.3333 40.588 17.1947 39.86 16.9433 39.1666H35.0545C34.8032 39.86 34.6645 40.5858 34.6645 41.3333C34.6645 44.917 37.5808 47.8333 41.1645 47.8333C44.7482 47.8333 47.6645 44.917 47.6645 41.3333C47.6645 40.4016 47.4457 39.5025 47.0578 38.664C49.9352 37.585 51.9978 34.8311 51.9978 31.5833V20.75C51.9978 15.3745 47.6255 11 42.25 11ZM42.25 13.1666C46.4317 13.1666 49.8333 16.5683 49.8333 20.75V24H36.8333V13.1666H42.25ZM15.1667 41.3333C15.1667 43.7231 13.2232 45.6666 10.8333 45.6666C8.4435 45.6666 6.5 43.7231 6.5 41.3333C6.5 40.5511 6.76433 39.8058 7.18033 39.1255C7.31683 39.132 7.44467 39.1666 7.58333 39.1666H14.508C14.9088 39.8361 15.1667 40.5663 15.1667 41.3333ZM45.5 41.3333C45.5 43.7231 43.5565 45.6666 41.1667 45.6666C38.7768 45.6666 36.8333 43.7231 36.8333 41.3333C36.8333 40.5641 37.0912 39.8361 37.492 39.1666H44.4167C44.5553 39.1666 44.6832 39.1341 44.8197 39.1255C45.2357 39.8058 45.5 40.549 45.5 41.3333ZM44.4167 37H36.8333V26.1666H49.8333V31.5833C49.8333 34.5711 47.4045 37 44.4167 37ZM1.08333 17.5H21.1142L14.3953 10.6771C13.9772 10.2525 13.9815 9.56563 14.4083 9.14529C14.833 8.72496 15.5177 8.73146 15.9402 9.15829L22.9667 16.2931C24.2277 17.5541 24.2277 19.6146 22.9602 20.8821L15.9402 28.0105C15.7278 28.2271 15.4483 28.3333 15.1688 28.3333C14.8958 28.3333 14.6207 28.2293 14.4083 28.0213C13.9815 27.601 13.9772 26.9141 14.3953 26.4895L21.1142 19.6666H1.08333C0.485333 19.6666 0 19.1813 0 18.5833C0 17.9853 0.485333 17.5 1.08333 17.5Z" fill="#101014"/>
</svg>
