<svg width="24" height="24" viewBox="0 0 24 24" fill="none" xmlns="http://www.w3.org/2000/svg">
<g clip-path="url(#clip0_20_19)">
<path d="M10 7.5L10 9.5C10 11.43 11.57 13 13.5 13L14 13L14 18L11 18C10.448 18 10 18.448 10 19C10 19.552 10.448 20 11 20L23 20C23.552 20 24 19.552 24 19C24 18.448 23.552 18 23 18L23 6C23.552 6 24 5.553 24 5C24 4.447 23.552 4 23 4L13.5 4C11.57 4 10 5.57 10 7.5ZM13.5 11C12.673 11 12 10.327 12 9.5L12 7.5C12 6.673 12.673 6 13.5 6L14 6L14 11L13.5 11ZM16 18L16 6L17 6L17 9.5C17 11.43 18.57 13 20.5 13L21 13L21 18L16 18ZM21 11L20.5 11C19.673 11 19 10.327 19 9.5L19 6L21 6L21 11ZM13 15.5C13 16.328 12.328 17 11.5 17C10.672 17 10 16.328 10 15.5C10 14.672 10.672 14 11.5 14C12.328 14 13 14.672 13 15.5ZM18.5 14C19.328 14 20 14.672 20 15.5C20 16.328 19.328 17 18.5 17C17.672 17 17 16.328 17 15.5C17 14.672 17.672 14 18.5 14ZM9.724 -4.25246e-07L23 -1.00556e-06C23.552 -1.02969e-06 24 0.446999 24 0.999999C24 1.553 23.552 2 23 2L9.724 2C8.725 2 7.795 2.494 7.237 3.322L2.513 10.322C1.825 11.342 1.825 12.658 2.513 13.678L7.237 20.678C7.796 21.506 8.725 22 9.724 22L23 22C23.552 22 24 22.448 24 23C24 23.552 23.552 24 23 24L9.724 24C8.059 24 6.51 23.176 5.579 21.797L0.854998 14.797C-0.291002 13.098 -0.291002 10.902 0.854998 9.203L5.579 2.203C6.51 0.823999 8.059 -3.52467e-07 9.724 -4.25246e-07Z" fill="#264EAB"/>
</g>
<defs>
<clipPath id="clip0_20_19">
<rect width="24" height="24" fill="white" transform="translate(0 24) rotate(-90)"/>
</clipPath>
</defs>
</svg>
