<svg width="38" height="31" viewBox="0 0 38 31" fill="none" xmlns="http://www.w3.org/2000/svg">
<path opacity="0.6" d="M1 13.2231L7.12 6.99174M7.12 6.99174V27C7.12 28.6569 8.46315 30 10.12 30H27.2219C28.8544 30 30.1872 28.6947 30.2213 27.0626L30.64 6.99174M7.12 6.99174H13.12M7.12 6.99174L13.12 12.8037M30.64 6.99174L37 13.2231M30.64 6.99174H24.76M30.64 6.99174L24.76 12.8037M13.12 6.99174V1H24.76V6.99174M13.12 6.99174H24.76M13.12 6.99174V12.8037M24.76 6.99174V12.8037M13.12 12.8037V18.6157H24.76V12.8037" stroke="black" stroke-opacity="0.6" stroke-linecap="round"/>
</svg>
