<svg width="54" height="45" viewBox="0 0 54 45" fill="none" xmlns="http://www.w3.org/2000/svg">
<path d="M1 19.124L10.01 9.8843M10.01 9.8843V41C10.01 42.6569 11.3531 44 13.01 44H40.9915C42.6241 44 43.957 42.6944 43.9909 41.0621L44.6367 9.8843M10.01 9.8843H18.8433M10.01 9.8843L18.8433 18.5021M44.6367 9.8843L53 19.124M44.6367 9.8843H35.98M44.6367 9.8843L35.98 18.5021M18.8433 9.8843V1H35.98V9.8843M18.8433 9.8843H35.98M18.8433 9.8843V18.5021M35.98 9.8843V18.5021M18.8433 18.5021V27.1198H35.98V18.5021" stroke="#101014" stroke-width="2" stroke-linecap="round"/>
</svg>
