<svg width="22" height="22" viewBox="0 0 22 22" fill="none" xmlns="http://www.w3.org/2000/svg">
<g clip-path="url(#clip0_987_185)">
<path d="M11 0C4.93442 0 0 4.93442 0 11C0 17.0656 4.93442 22 11 22C17.0656 22 22 17.0656 22 11C22 4.93442 17.0656 0 11 0ZM11 21.0833C5.44042 21.0833 0.916667 16.5596 0.916667 11C0.916667 5.44042 5.44042 0.916667 11 0.916667C16.5596 0.916667 21.0833 5.44042 21.0833 11C21.0833 16.5596 16.5596 21.0833 11 21.0833ZM10.0833 13.2917C10.0833 13.5447 9.878 13.75 9.625 13.75H8.25C7.744 13.75 7.33333 13.3393 7.33333 12.8333V9.16667C7.33333 8.66158 7.744 8.25 8.25 8.25H9.625C9.878 8.25 10.0833 8.45533 10.0833 8.70833C10.0833 8.96133 9.878 9.16667 9.625 9.16667H8.25V10.5417H9.625C9.878 10.5417 10.0833 10.747 10.0833 11C10.0833 11.253 9.878 11.4583 9.625 11.4583H8.25V12.8333H9.625C9.878 12.8333 10.0833 13.0387 10.0833 13.2917ZM12.8333 13.75C11.8223 13.75 11 12.9278 11 11.9167V8.70833C11 8.45533 11.2053 8.25 11.4583 8.25C11.7113 8.25 11.9167 8.45533 11.9167 8.70833V11.9167C11.9167 12.4227 12.3273 12.8333 12.8333 12.8333C13.3393 12.8333 13.75 12.4227 13.75 11.9167V8.70833C13.75 8.45533 13.9553 8.25 14.2083 8.25C14.4613 8.25 14.6667 8.45533 14.6667 8.70833V11.9167C14.6667 12.9278 13.8444 13.75 12.8333 13.75ZM10.0833 3.66667C10.0833 3.16067 10.494 2.75 11 2.75C11.506 2.75 11.9167 3.16067 11.9167 3.66667C11.9167 4.17267 11.506 4.58333 11 4.58333C10.494 4.58333 10.0833 4.17267 10.0833 3.66667ZM11.9167 18.3333C11.9167 18.8393 11.506 19.25 11 19.25C10.494 19.25 10.0833 18.8393 10.0833 18.3333C10.0833 17.8273 10.494 17.4167 11 17.4167C11.506 17.4167 11.9167 17.8273 11.9167 18.3333ZM3.66667 11.9167C3.16067 11.9167 2.75 11.506 2.75 11C2.75 10.494 3.16067 10.0833 3.66667 10.0833C4.17267 10.0833 4.58333 10.494 4.58333 11C4.58333 11.506 4.17267 11.9167 3.66667 11.9167ZM19.25 11C19.25 11.506 18.8393 11.9167 18.3333 11.9167C17.8273 11.9167 17.4167 11.506 17.4167 11C17.4167 10.494 17.8273 10.0833 18.3333 10.0833C18.8393 10.0833 19.25 10.494 19.25 11ZM15.3789 5.04717C15.1314 5.489 14.5732 5.64667 14.1313 5.40008C13.6895 5.1535 13.5318 4.59433 13.7784 4.1525C14.0259 3.71067 14.5842 3.553 15.026 3.79958C15.4678 4.04617 15.6255 4.60533 15.3789 5.04717ZM8.22067 17.8484C7.97317 18.2903 7.41492 18.4479 6.97308 18.2013C6.53125 17.9538 6.37358 17.3956 6.62017 16.9538C6.86767 16.5119 7.42592 16.3543 7.86775 16.6008C8.30958 16.8483 8.46725 17.4066 8.22067 17.8484ZM5.39917 7.86867C5.15167 8.3105 4.59342 8.46817 4.15158 8.22158C3.70975 7.97408 3.55208 7.41583 3.79867 6.974C4.04617 6.53217 4.60442 6.3745 5.04625 6.62108C5.48808 6.86767 5.64575 7.42683 5.39917 7.86867ZM18.2004 15.0269C17.9529 15.4688 17.3947 15.6264 16.9528 15.3798C16.511 15.1323 16.3533 14.5741 16.5999 14.1322C16.8474 13.6904 17.4057 13.5328 17.8475 13.7793C18.2893 14.0268 18.447 14.5851 18.2004 15.0269ZM6.62108 5.04717C6.37358 4.60533 6.53217 4.04708 6.974 3.79958C7.41583 3.55208 7.97408 3.71067 8.22158 4.1525C8.46908 4.59433 8.3105 5.15258 7.86867 5.40008C7.42683 5.64758 6.86858 5.489 6.62108 5.04717ZM15.3798 16.9538C15.6273 17.3956 15.4688 17.9538 15.0269 18.2013C14.5851 18.4488 14.0268 18.2903 13.7793 17.8484C13.5318 17.4066 13.6904 16.8483 14.1322 16.6008C14.5741 16.3533 15.1323 16.5119 15.3798 16.9538ZM16.6008 7.86867C16.3533 7.42683 16.5119 6.86858 16.9538 6.62108C17.3956 6.37358 17.9538 6.53217 18.2013 6.974C18.4488 7.41583 18.2903 7.97408 17.8484 8.22158C17.4066 8.46908 16.8483 8.3105 16.6008 7.86867ZM5.39917 14.1313C5.64667 14.5732 5.48808 15.1314 5.04625 15.3789C4.60442 15.6264 4.04617 15.4678 3.79867 15.026C3.55117 14.5842 3.70975 14.0259 4.15158 13.7784C4.59342 13.5309 5.15167 13.6895 5.39917 14.1313Z" fill="#101014"/>
</g>
<defs>
<clipPath id="clip0_987_185">
<rect width="22" height="22" fill="white"/>
</clipPath>
</defs>
</svg>
