<svg width="52" height="52" viewBox="0 0 52 52" fill="none" xmlns="http://www.w3.org/2000/svg">
<g clip-path="url(#clip0_406_193)">
<path d="M26 0C11.6632 0 0 11.6632 0 26C0 40.3368 11.6632 52 26 52C40.3368 52 52 40.3368 52 26C52 11.6632 40.3368 0 26 0ZM26 49.8333C12.8592 49.8333 2.16667 39.1408 2.16667 26C2.16667 12.8592 12.8592 2.16667 26 2.16667C39.1408 2.16667 49.8333 12.8592 49.8333 26C49.8333 39.1408 39.1408 49.8333 26 49.8333ZM23.8333 31.4167C23.8333 32.0147 23.348 32.5 22.75 32.5H19.5C18.304 32.5 17.3333 31.5293 17.3333 30.3333V21.6667C17.3333 20.4728 18.304 19.5 19.5 19.5H22.75C23.348 19.5 23.8333 19.9853 23.8333 20.5833C23.8333 21.1813 23.348 21.6667 22.75 21.6667H19.5V24.9167H22.75C23.348 24.9167 23.8333 25.402 23.8333 26C23.8333 26.598 23.348 27.0833 22.75 27.0833H19.5V30.3333H22.75C23.348 30.3333 23.8333 30.8187 23.8333 31.4167ZM30.3333 32.5C27.9435 32.5 26 30.5565 26 28.1667V20.5833C26 19.9853 26.4853 19.5 27.0833 19.5C27.6813 19.5 28.1667 19.9853 28.1667 20.5833V28.1667C28.1667 29.3627 29.1373 30.3333 30.3333 30.3333C31.5293 30.3333 32.5 29.3627 32.5 28.1667V20.5833C32.5 19.9853 32.9853 19.5 33.5833 19.5C34.1813 19.5 34.6667 19.9853 34.6667 20.5833V28.1667C34.6667 30.5565 32.7232 32.5 30.3333 32.5ZM23.8333 8.66667C23.8333 7.47067 24.804 6.5 26 6.5C27.196 6.5 28.1667 7.47067 28.1667 8.66667C28.1667 9.86267 27.196 10.8333 26 10.8333C24.804 10.8333 23.8333 9.86267 23.8333 8.66667ZM28.1667 43.3333C28.1667 44.5293 27.196 45.5 26 45.5C24.804 45.5 23.8333 44.5293 23.8333 43.3333C23.8333 42.1373 24.804 41.1667 26 41.1667C27.196 41.1667 28.1667 42.1373 28.1667 43.3333ZM8.66667 28.1667C7.47067 28.1667 6.5 27.196 6.5 26C6.5 24.804 7.47067 23.8333 8.66667 23.8333C9.86267 23.8333 10.8333 24.804 10.8333 26C10.8333 27.196 9.86267 28.1667 8.66667 28.1667ZM45.5 26C45.5 27.196 44.5293 28.1667 43.3333 28.1667C42.1373 28.1667 41.1667 27.196 41.1667 26C41.1667 24.804 42.1373 23.8333 43.3333 23.8333C44.5293 23.8333 45.5 24.804 45.5 26ZM36.3502 11.9297C35.7652 12.974 34.4457 13.3467 33.4013 12.7638C32.357 12.181 31.9843 10.8593 32.5672 9.815C33.1522 8.77067 34.4717 8.398 35.516 8.98083C36.5603 9.56367 36.933 10.8853 36.3502 11.9297ZM19.4307 42.1872C18.8457 43.2315 17.5262 43.6042 16.4818 43.0213C15.4375 42.4363 15.0648 41.1168 15.6477 40.0725C16.2327 39.0282 17.5522 38.6555 18.5965 39.2383C19.6408 39.8233 20.0135 41.1428 19.4307 42.1872ZM12.7617 18.5987C12.1767 19.643 10.8572 20.0157 9.81283 19.4328C8.7685 18.8478 8.39583 17.5283 8.97867 16.484C9.56367 15.4397 10.8832 15.067 11.9275 15.6498C12.9718 16.2327 13.3445 17.5543 12.7617 18.5987ZM43.0192 35.5182C42.4342 36.5625 41.1147 36.9352 40.0703 36.3523C39.026 35.7673 38.6533 34.4478 39.2362 33.4035C39.8212 32.3592 41.1407 31.9865 42.185 32.5693C43.2293 33.1543 43.602 34.4738 43.0192 35.5182ZM15.6498 11.9297C15.0648 10.8853 15.4397 9.56583 16.484 8.98083C17.5283 8.39583 18.8478 8.77067 19.4328 9.815C20.0178 10.8593 19.643 12.1788 18.5987 12.7638C17.5543 13.3488 16.2348 12.974 15.6498 11.9297ZM36.3523 40.0725C36.9373 41.1168 36.5625 42.4363 35.5182 43.0213C34.4738 43.6063 33.1543 43.2315 32.5693 42.1872C31.9843 41.1428 32.3592 39.8233 33.4035 39.2383C34.4478 38.6533 35.7673 39.0282 36.3523 40.0725ZM39.2383 18.5987C38.6533 17.5543 39.0282 16.2348 40.0725 15.6498C41.1168 15.0648 42.4363 15.4397 43.0213 16.484C43.6063 17.5283 43.2315 18.8478 42.1872 19.4328C41.1428 20.0178 39.8233 19.643 39.2383 18.5987ZM12.7617 33.4013C13.3467 34.4457 12.9718 35.7652 11.9275 36.3502C10.8832 36.9352 9.56367 36.5603 8.97867 35.516C8.39367 34.4717 8.7685 33.1522 9.81283 32.5672C10.8572 31.9822 12.1767 32.357 12.7617 33.4013Z" fill="black"/>
</g>
<defs>
<clipPath id="clip0_406_193">
<rect width="52" height="52" fill="white"/>
</clipPath>
</defs>
</svg>
