<svg width="252" height="219" viewBox="0 0 252 219" fill="none" xmlns="http://www.w3.org/2000/svg">
<circle cx="204.5" cy="47.5" r="47.5" fill="white"/>
<g clip-path="url(#clip0_85_417)">
<path d="M58.6869 219C109.532 215.532 109.014 215.009 143.051 212.555C143.574 212.518 144 212.081 144 211.556V125.345C144 125.214 143.974 125.083 143.924 124.962L128.299 87.3151C128.249 87.1936 128.223 87.0634 128.223 86.9318L128.223 63.523L128.223 60.016L128.223 56.008V53C128.223 52.4477 127.775 52 127.223 52H46.5952C46.0429 52 45.5952 52.4477 45.5952 53V56.008V60.016V63.523L45.5952 87.1311M58.6869 219L32 203.803M58.6869 219V129.972C58.6869 129.873 58.6721 129.774 58.6429 129.679L45.5952 87.1311M58.6869 219L45.5952 185M32 203.803V119.67C32 119.537 32.0266 119.405 32.0782 119.282L45.5952 87.1311M32 203.803L45.5952 185M45.5952 87.1311L45.5952 185" stroke="#101014" stroke-width="2"/>
<path d="M56.1217 78.1605H59.1262H66.0224H117.168C117.89 78.1605 118.583 78.4473 119.093 78.9577C119.603 79.4681 119.89 80.1604 119.89 80.8822V81.0085C119.89 81.7303 119.603 82.4226 119.093 82.933C118.583 83.4434 117.89 83.7302 117.168 83.7302H56.1217C55.3999 83.7302 54.7076 83.4434 54.1972 82.933C53.6868 82.4226 53.4 81.7303 53.4 81.0085V80.8822C53.4 80.1604 53.6868 79.4681 54.1972 78.9577C54.7076 78.4473 55.3999 78.1605 56.1217 78.1605Z" stroke="black" stroke-width="0.8"/>
<path d="M57.5183 71.8504L57.9186 71.8519L70.9763 71.9005H70.9764L76.3644 71.9213L116.969 72.0753L116.969 72.0753C117.099 72.0758 117.227 72.0507 117.347 72.0016C117.467 71.9524 117.576 71.8801 117.668 71.7887C117.761 71.6973 117.834 71.5887 117.884 71.469C117.934 71.3495 117.96 71.2213 117.96 71.0917C117.96 71.0916 117.96 71.0914 117.96 71.0913M57.5183 71.8504L118.36 71.0927L117.96 71.0913M57.5183 71.8504L57.5171 72.2507L57.515 72.944L57.5183 71.8504ZM117.96 71.0913L117.961 70.8163L117.961 70.8157C117.961 70.6861 117.936 70.5576 117.887 70.4377C117.838 70.3177 117.766 70.2086 117.675 70.1166C117.583 70.0246 117.475 69.9515 117.355 69.9015C117.236 69.8515 117.107 69.8255 116.978 69.825L116.978 69.825L57.9787 69.6016L57.616 69.6003L57.582 69.2392L57.5231 68.6142L117.96 71.0913Z" stroke="black" stroke-width="0.8"/>
<path d="M57 81L117 81" stroke="black" stroke-width="1.5" stroke-linecap="round"/>
</g>
<mask id="mask0_85_417" style="mask-type:alpha" maskUnits="userSpaceOnUse" x="157" y="0" width="95" height="95">
<circle cx="204.5" cy="47.5" r="47.5" fill="white"/>
</mask>
<g mask="url(#mask0_85_417)">
<path d="M250 33H175.197C174.644 33 174.197 33.4477 174.197 34V43.9912V47.8142V52.115V62.6283V70.0683C174.197 70.2042 174.169 70.3387 174.115 70.4636L167 87" stroke="#101014" stroke-width="2"/>
<path fill-rule="evenodd" clip-rule="evenodd" d="M186.37 57.4471H181.034C180.821 57.4471 180.617 57.5316 180.466 57.6821C180.316 57.8326 180.231 58.0367 180.231 58.2496C180.231 58.4624 180.316 58.6665 180.466 58.817C180.617 58.9675 180.821 59.052 181.034 59.052H187.659C187.208 58.7412 186.839 58.3271 186.582 57.8443L186.37 57.4471ZM191.57 59.052H252.934C253.147 59.052 253.351 58.9675 253.502 58.817C253.652 58.6665 253.737 58.4624 253.737 58.2496C253.737 58.0367 253.652 57.8326 253.502 57.6821C253.351 57.5316 253.147 57.4471 252.934 57.4471H192.83C192.582 58.0971 192.143 58.6567 191.57 59.052ZM193.132 55.3687H252.292C253.037 55.3687 253.752 55.6646 254.278 56.1913C254.805 56.718 255.101 57.4324 255.101 58.1773V58.3226C255.101 59.0675 254.805 59.7819 254.278 60.3086C253.752 60.8353 253.037 61.1312 252.292 61.1312H181.676C180.931 61.1312 180.216 60.8353 179.69 60.3086C179.163 59.7819 178.867 59.0675 178.867 58.3226V58.1765C178.867 57.4316 179.163 56.7172 179.69 56.1905C180.216 55.6638 180.931 55.3679 181.676 55.3679H185.32C185.234 55.1075 185.177 54.8383 185.151 54.5654H181.676C180.718 54.5654 179.799 54.9459 179.122 55.6231C178.445 56.3003 178.064 57.2188 178.064 58.1765V58.3226C178.064 59.2803 178.445 60.1988 179.122 60.876C179.799 61.5532 180.718 61.9337 181.676 61.9337H252.292C253.25 61.9337 254.169 61.5532 254.846 60.876C255.523 60.1988 255.904 59.2803 255.904 58.3226V58.1765C255.904 57.2188 255.523 56.3003 254.846 55.6231C254.169 54.9459 253.25 54.5654 252.292 54.5654H193.128C193.152 54.8142 193.155 55.0678 193.136 55.3214L193.132 55.3679V55.3687Z" fill="#101014"/>
<path fill-rule="evenodd" clip-rule="evenodd" d="M184.201 47.0365L199.306 47.0927L189.775 52.7709L189.365 52.0808C189.203 51.8093 188.989 51.5722 188.735 51.3833C188.482 51.1943 188.194 51.0571 187.887 50.9796C187.581 50.902 187.262 50.8855 186.949 50.9312C186.636 50.9768 186.336 51.0836 186.064 51.2455L186.006 51.28L185.595 50.5898L185.654 50.5561C186.385 50.1207 187.26 49.9935 188.085 50.2027C188.91 50.4119 189.618 50.9402 190.054 51.6716L196.409 47.8847L185.002 47.8422C184.998 48.6934 184.657 49.5083 184.053 50.1079C183.448 50.7074 182.631 51.0424 181.78 51.0392H181.711C181.29 51.0376 180.873 50.9531 180.484 50.7903C180.095 50.6275 179.742 50.3898 179.445 50.0906C179.148 49.7914 178.913 49.4367 178.753 49.0466C178.593 48.6566 178.512 48.2389 178.514 47.8173L178.532 43.0025C178.534 42.581 178.618 42.1639 178.781 41.7751C178.944 41.3863 179.181 41.0333 179.481 40.7363C179.78 40.4394 180.135 40.2043 180.525 40.0444C180.915 39.8846 181.332 39.8031 181.754 39.8047H181.821C182.618 39.8076 183.384 40.1064 183.973 40.6429C184.561 41.1794 184.929 41.9155 185.005 42.708L252.526 42.964C252.842 42.9652 253.155 43.0286 253.446 43.1507C253.738 43.2727 254.002 43.451 254.225 43.6754C254.448 43.8998 254.624 44.1658 254.744 44.4584C254.864 44.7509 254.925 45.0641 254.924 45.3802L254.923 45.6988C254.922 46.015 254.858 46.3278 254.736 46.6194C254.614 46.9111 254.436 47.1758 254.211 47.3985C253.987 47.6213 253.721 47.7976 253.428 47.9175C253.136 48.0374 252.823 48.0985 252.506 48.0974L205.759 47.9208L192.518 55.8075C192.954 56.5389 193.081 57.4133 192.872 58.2384C192.662 59.0635 192.134 59.7718 191.403 60.2074L191.345 60.2427C190.983 60.4585 190.582 60.6008 190.164 60.6615C189.747 60.7222 189.322 60.7001 188.914 60.5965C188.505 60.493 188.121 60.3099 187.783 60.0578C187.445 59.8057 187.16 59.4895 186.944 59.1273L184.481 54.9906C184.045 54.2592 183.918 53.3847 184.127 52.5596C184.336 51.7345 184.865 51.0262 185.596 50.5906L186.006 51.28C185.458 51.6067 185.062 52.1379 184.905 52.7567C184.748 53.3755 184.843 54.0312 185.17 54.5797L187.634 58.7164C187.795 58.988 188.009 59.2251 188.263 59.4142C188.516 59.6032 188.804 59.7405 189.111 59.8181C189.417 59.8958 189.736 59.9123 190.049 59.8667C190.362 59.8212 190.663 59.7144 190.934 59.5526L190.992 59.5181C191.54 59.1914 191.937 58.6603 192.094 58.0415C192.251 57.4227 192.155 56.7669 191.829 56.2183L191.418 55.5282L205.539 47.1168L252.509 47.2949C252.72 47.2958 252.929 47.2551 253.124 47.1751C253.319 47.0952 253.496 46.9776 253.646 46.8291C253.796 46.6806 253.914 46.504 253.996 46.3095C254.077 46.1151 254.12 45.9064 254.12 45.6956L254.121 45.377C254.122 45.1663 254.081 44.9575 254.001 44.7625C253.921 44.5675 253.804 44.3901 253.655 44.2406C253.507 44.091 253.331 43.9722 253.136 43.8908C252.942 43.8095 252.733 43.7672 252.523 43.7665L184.274 43.5081L184.206 42.7843C184.149 42.1899 183.873 41.6381 183.432 41.2357C182.991 40.8334 182.416 40.6094 181.819 40.6072H181.752C181.435 40.6059 181.122 40.6669 180.829 40.7868C180.537 40.9067 180.271 41.083 180.046 41.3058C179.822 41.5285 179.643 41.7933 179.521 42.085C179.399 42.3766 179.336 42.6895 179.334 43.0057L179.316 47.8205C179.315 48.1367 179.376 48.4501 179.496 48.7427C179.616 49.0352 179.792 49.3013 180.015 49.5257C180.238 49.7501 180.503 49.9284 180.795 50.0504C181.086 50.1724 181.399 50.2357 181.715 50.2368H181.782C182.098 50.238 182.411 50.177 182.704 50.0572C182.997 49.9374 183.263 49.7611 183.487 49.5385C183.712 49.3158 183.89 49.0511 184.012 48.7595C184.134 48.4679 184.198 48.1551 184.199 47.839L184.201 47.0365Z" fill="#101014"/>
<path fill-rule="evenodd" clip-rule="evenodd" d="M205.496 43.5496L197.178 48.3652L196.776 47.6711L205.094 42.8555L205.496 43.5496Z" fill="#101014"/>
</g>
<defs>
<clipPath id="clip0_85_417">
<rect width="178" height="178" fill="white" transform="translate(0 41)"/>
</clipPath>
</defs>
</svg>
