<svg width="24" height="24" viewBox="0 0 24 24" fill="none" xmlns="http://www.w3.org/2000/svg">
<g clip-path="url(#clip0_20_5)">
<path d="M6.945 -3.03576e-07C5.39686 0.0282852 3.92042 0.65766 2.828 1.755L0.292999 4.293C0.110841 4.4816 0.0100467 4.7342 0.0123251 4.9964C0.0146036 5.2586 0.119772 5.50941 0.305181 5.69482C0.490589 5.88023 0.741401 5.9854 1.0036 5.98767C1.26579 5.98995 1.5184 5.88916 1.707 5.707L3.414 4L6 4C6.53043 4 7.03914 3.78929 7.41421 3.41421C7.78929 3.03914 8 2.53043 8 2L18 2C18.2652 2 18.5196 2.10536 18.7071 2.29289C18.8946 2.48043 19 2.73478 19 3C19 3.26522 18.8946 3.51957 18.7071 3.70711C18.5196 3.89464 18.2652 4 18 4L17 4C16.2043 4 15.4413 4.31607 14.8787 4.87868C14.3161 5.44129 14 6.20435 14 7L14 8L5 8C3.6744 8.00159 2.40356 8.52888 1.46622 9.46622C0.528881 10.4036 0.00158732 11.6744 -4.80825e-07 13L-2.18557e-07 19C0.0015877 20.3256 0.528882 21.5964 1.46622 22.5338C2.40356 23.4711 3.6744 23.9984 5 24L19 24C20.3256 23.9984 21.5964 23.4711 22.5338 22.5338C23.4711 21.5964 23.9984 20.3256 24 19L24 13C23.9984 11.6744 23.4711 10.4036 22.5338 9.46622C21.5964 8.52888 20.3256 8.00159 19 8L16 8L16 7C16 6.73478 16.1054 6.48043 16.2929 6.29289C16.4804 6.10536 16.7348 6 17 6L18 6C18.7956 6 19.5587 5.68393 20.1213 5.12132C20.6839 4.55871 21 3.79565 21 3C21 2.20435 20.6839 1.44129 20.1213 0.878678C19.5587 0.316069 18.7956 -8.21584e-07 18 -7.86805e-07C18 -7.86805e-07 6.963 -3.04362e-07 6.945 -3.03576e-07ZM2 19L2 13C2 12.2044 2.31607 11.4413 2.87868 10.8787C3.44129 10.3161 4.20435 10 5 10L9 10L9 22L5 22C4.20435 22 3.44129 21.6839 2.87868 21.1213C2.31607 20.5587 2 19.7956 2 19ZM19 10C19.7956 10 20.5587 10.3161 21.1213 10.8787C21.6839 11.4413 22 12.2043 22 13L22 19C22 19.7956 21.6839 20.5587 21.1213 21.1213C20.5587 21.6839 19.7956 22 19 22L11 22L11 10L19 10Z" fill="#264EAB"/>
</g>
<defs>
<clipPath id="clip0_20_5">
<rect width="24" height="24" fill="white" transform="translate(0 24) rotate(-90)"/>
</clipPath>
</defs>
</svg>
