<svg width="24" height="24" viewBox="0 0 24 24" fill="none" xmlns="http://www.w3.org/2000/svg">
<g clip-path="url(#clip0_20_35)">
<path d="M7 4L7 5.738C6.50159 5.1726 5.88488 4.7238 5.1936 4.42343C4.50232 4.12307 3.75341 3.97851 3 4C2.73478 4 2.48043 4.10536 2.29289 4.29289C2.10536 4.48043 2 4.73478 2 5C2 5.26522 2.10536 5.51957 2.29289 5.70711C2.48043 5.89464 2.73478 6 3 6C5.622 6 6.53 8.371 6.841 10.174C5.66105 9.50852 4.35037 9.10791 3 9C2.20435 9 1.44129 9.31607 0.878679 9.87868C0.31607 10.4413 -5.59316e-07 11.2044 -5.24537e-07 12C-4.89758e-07 12.7956 0.31607 13.5587 0.878679 14.1213C1.44129 14.6839 2.20435 15 3 15C4.35037 14.8921 5.66105 14.4915 6.841 13.826C6.53 15.629 5.622 18 3 18C2.73478 18 2.48043 18.1054 2.29289 18.2929C2.10536 18.4804 2 18.7348 2 19C2 19.2652 2.10536 19.5196 2.29289 19.7071C2.48043 19.8946 2.73478 20 3 20C3.75341 20.0215 4.50232 19.8769 5.1936 19.5766C5.88488 19.2762 6.5016 18.8274 7 18.262L7 20C7 21.0609 7.42143 22.0783 8.17157 22.8284C8.92172 23.5786 9.93913 24 11 24L12 24C12.5304 24 13.0391 23.7893 13.4142 23.4142C13.7893 23.0391 14 22.5304 14 22L19 22C20.3256 21.9984 21.5964 21.4711 22.5338 20.5338C23.4711 19.5964 23.9984 18.3256 24 17L24 7C23.9984 5.6744 23.4711 4.40356 22.5338 3.46622C21.5964 2.52888 20.3256 2.00159 19 2L14 2C14 1.46957 13.7893 0.960859 13.4142 0.585786C13.0391 0.210714 12.5304 -5.47723e-07 12 -5.24537e-07L11 -4.80825e-07C9.93913 -4.34453e-07 8.92172 0.421428 8.17157 1.17157C7.42143 1.92172 7 2.93913 7 4ZM2 12C2 11.7348 2.10536 11.4804 2.29289 11.2929C2.48043 11.1054 2.73478 11 3 11C4.06283 11.1207 5.08891 11.4613 6.013 12C5.08891 12.5387 4.06283 12.8793 3 13C2.73478 13 2.48043 12.8946 2.29289 12.7071C2.10536 12.5196 2 12.2652 2 12ZM11 22C10.4696 22 9.96086 21.7893 9.58579 21.4142C9.21071 21.0391 9 20.5304 9 20L9 13L12 13L12 22L11 22ZM19 20L14 20L14 13L22 13L22 17C22 17.7956 21.6839 18.5587 21.1213 19.1213C20.5587 19.6839 19.7956 20 19 20ZM19 4C19.7956 4 20.5587 4.31607 21.1213 4.87868C21.6839 5.44129 22 6.20435 22 7L22 11L14 11L14 4L19 4ZM12 11L9 11L9 4C9 3.46957 9.21071 2.96086 9.58579 2.58579C9.96086 2.21071 10.4696 2 11 2L12 2L12 11Z" fill="#101014"/>
</g>
<defs>
<clipPath id="clip0_20_35">
<rect width="24" height="24" fill="white" transform="translate(0 24) rotate(-90)"/>
</clipPath>
</defs>
</svg>
