<svg width="230" height="221" viewBox="0 0 230 221" fill="none" xmlns="http://www.w3.org/2000/svg">
<rect x="34" y="57" width="49" height="13" rx="6.5" stroke="black" stroke-width="2"/>
<path d="M27.6869 219C78.5316 215.532 78.0139 215.009 112.051 212.555C112.574 212.518 113 212.081 113 211.556V125.345C113 125.214 112.974 125.083 112.924 124.962L97.2992 87.3151C97.2488 87.1936 97.2229 87.0634 97.2229 86.9318L97.2228 63.523L97.2229 60.016L97.2228 51.008V48C97.2228 47.4477 96.7751 47 96.2228 47H15.5952C15.0429 47 14.5952 47.4477 14.5952 48V51.008V60.016V63.523L14.5952 87.1311M27.6869 219L1 203.803M27.6869 219V129.972C27.6869 129.873 27.6721 129.774 27.6429 129.679L14.5952 87.1311M27.6869 219L14.5952 185M1 203.803V119.67C1 119.537 1.02657 119.405 1.07816 119.282L14.5952 87.1311M1 203.803L14.5952 185M14.5952 87.1311L14.5952 185" stroke="#101014" stroke-width="2"/>
<path d="M89 81L23 81" stroke="black" stroke-width="1.5" stroke-linecap="round"/>
<path d="M23.3402 78.4H26.555H33.9339H88.6598C89.4549 78.4 90.2087 78.6785 90.7574 79.1615C91.3044 79.643 91.6 80.2844 91.6 80.9405V81.0595C91.6 81.7156 91.3044 82.357 90.7574 82.8385C90.2087 83.3215 89.4549 83.6 88.6598 83.6H23.3402C22.5451 83.6 21.7913 83.3215 21.2426 82.8385C20.6956 82.357 20.4 81.7156 20.4 81.0595V80.9405C20.4 80.2844 20.6956 79.643 21.2426 79.1615C21.7913 78.6785 22.5451 78.4 23.3402 78.4Z" stroke="black" stroke-width="0.8"/>
<mask id="mask0_85_420" style="mask-type:alpha" maskUnits="userSpaceOnUse" x="135" y="0" width="95" height="95">
<circle cx="182.5" cy="47.5" r="47.5" fill="white"/>
</mask>
<g mask="url(#mask0_85_420)">
<circle cx="182.5" cy="47.5" r="47.5" fill="white"/>
<path d="M194.496 44.7927H148V64.3121V67.8829V72.2148V112.993L214.553 114.91L215.009 72.9729V67.8829V64.3121V44.7927H208.171" stroke="#101014" stroke-width="2" stroke-linecap="round" stroke-linejoin="round"/>
<path d="M207.261 68.4146L156.206 68.4145" stroke="#101014" stroke-width="1.5" stroke-linecap="round"/>
<path d="M156.095 65.9782H158.618H164.411H207.374C207.988 65.9782 208.578 66.2274 209.014 66.6732C209.45 67.1192 209.697 67.7255 209.697 68.3591V68.4675C209.697 69.101 209.45 69.7073 209.014 70.1533C208.578 70.5991 207.988 70.8483 207.374 70.8483H156.095C155.481 70.8483 154.891 70.5991 154.455 70.1533C154.019 69.7073 153.772 69.101 153.772 68.4675V68.3591C153.772 67.7255 154.019 67.1192 154.455 66.6732C154.891 66.2274 155.481 65.9782 156.095 65.9782Z" stroke="#101014" stroke-width="0.6"/>
<rect x="163.585" y="51.1812" width="37.2023" height="9.85185" rx="4.92593" stroke="black" stroke-width="2"/>
<rect x="182" y="37" width="6.20513" height="20.792" rx="3.10256" fill="white" stroke="#101014" stroke-width="2"/>
<rect x="175.441" y="38.4973" width="5.29345" height="18.9687" rx="2.64672" fill="white" stroke="#101014" stroke-width="2"/>
<rect x="189.115" y="38.4973" width="5.29345" height="18.9687" rx="2.64672" fill="white" stroke="#101014" stroke-width="2"/>
<rect x="169" y="44" width="5" height="13" rx="2.5" fill="white" stroke="#101014" stroke-width="2"/>
<path d="M172.628 22L166.5 44.5M191.4 32.9393C194.025 33.8434 195.51 35.0702 196.355 36.6065C197.186 38.1225 197.366 39.8946 197.49 41.8085C197.675 44.6562 200.668 46.0919 203.225 44.6338C204.209 44.0721 204.935 43.1555 205.251 42.0762C205.567 40.9969 205.447 39.8386 204.918 38.8444L196.076 22.238" stroke="black" stroke-width="2" stroke-linecap="round" stroke-linejoin="round"/>
</g>
</svg>
