<svg width="24" height="24" viewBox="0 0 24 24" fill="none" xmlns="http://www.w3.org/2000/svg">
<g clip-path="url(#clip0_20_10)">
<path d="M22.253 0.395999C23.33 0.972999 24 2.091 24 3.313L24 6C24 6.552 23.553 7 23 7C22.447 7 22 6.552 22 6L22 3.313C22 2.822 21.741 2.391 21.309 2.159C20.876 1.928 20.374 1.951 19.965 2.224C19.934 2.245 19.902 2.264 19.868 2.281L15.458 4.555C15.148 4.715 14.777 4.702 14.479 4.52C14.181 4.338 14 4.015 14 3.666L14 3.262C14 3.178 13.963 3.116 13.889 3.076C13.815 3.036 13.743 3.04 13.672 3.087L8.472 5.881C8.162 6.047 7.787 6.038 7.486 5.858C7.185 5.678 7 5.352 7 5C7 4.917 6.963 4.854 6.891 4.815C6.83 4.782 6.771 4.778 6.713 4.803L2.056 8.794C1.976 8.881 1.923 9.074 2.109 9.257L5.654 12.307C6.072 12.666 6.119 13.299 5.759 13.718C5.399 14.136 4.767 14.183 4.349 13.823L0.752 10.725C-0.254001 9.738 -0.203001 8.216 0.700999 7.323C0.700999 7.323 5.552 3.166 5.59 3.142C6.271 2.703 7.135 2.671 7.846 3.058C8.101 3.197 8.321 3.381 8.498 3.597L12.644 1.373C13.242 0.968999 14.112 0.927 14.832 1.312C15.209 1.514 15.512 1.814 15.714 2.172L18.906 0.525998C19.917 -0.120002 21.193 -0.172001 22.253 0.395999ZM15.348 8L19.5 8C21.981 8 24 10.019 24 12.5L24 19.5C24 21.981 21.981 24 19.5 24L15.348 24C13.8 24 12.366 23.301 11.41 22.082L9.062 19.082C7.641 17.268 7.643 14.733 9.062 12.919L11.411 9.919C12.366 8.7 13.801 8.001 15.349 8.001L15.348 8ZM15.348 10C14.419 10 13.558 10.419 12.985 11.151L10.637 14.151C10.212 14.695 9.998 15.348 9.998 16C9.998 16.652 10.211 17.305 10.638 17.849L12.985 20.849C13.558 21.58 14.42 22 15.348 22L19.5 22C20.879 22 22 20.878 22 19.5L22 12.5C22 11.122 20.879 10 19.5 10L15.348 10ZM15 15L15 17C15 17.552 15.448 18 16 18L18 18C18.552 18 19 17.552 19 17L19 15C19 14.448 18.552 14 18 14L16 14C15.448 14 15 14.448 15 15Z" fill="#101014"/>
</g>
<defs>
<clipPath id="clip0_20_10">
<rect width="24" height="24" fill="white" transform="translate(0 24) rotate(-90)"/>
</clipPath>
</defs>
</svg>
