<svg width="42" height="26" viewBox="0 0 42 26" fill="none" xmlns="http://www.w3.org/2000/svg">
<path fill-rule="evenodd" clip-rule="evenodd" d="M0 11.5429C0 11.1071 0.367266 10.7539 0.820312 10.7539H12.1595C12.6125 10.7539 12.9798 11.1071 12.9798 11.5429C12.9798 11.9786 12.6125 12.3319 12.1595 12.3319H1.64062V24.3235H40.3594V12.3319H29.8405C29.3875 12.3319 29.0202 11.9786 29.0202 11.5429C29.0202 11.1071 29.3875 10.7539 29.8405 10.7539H41.1797C41.6327 10.7539 42 11.1071 42 11.5429V25.1125C42 25.5482 41.6327 25.9014 41.1797 25.9014H0.820312C0.367266 25.9014 0 25.5482 0 25.1125V11.5429Z" fill="#264EAB"/>
<path fill-rule="evenodd" clip-rule="evenodd" d="M21.5157 0.616031L20.9999 1.21959L20.4963 0.605867C20.7938 0.362622 21.2231 0.366903 21.5157 0.616031ZM20.9909 2.28878C20.9202 2.35465 20.8435 2.42713 20.7619 2.50587C20.3059 2.9456 19.6989 3.57581 19.0937 4.33725C17.86 5.88935 16.737 7.85848 16.737 9.81056C16.737 12.1055 18.6338 13.9872 20.9999 13.9872C23.3661 13.9872 25.2629 12.1055 25.2629 9.81056C25.2629 7.947 24.1437 5.9794 22.903 4.39745C22.296 3.62356 21.6872 2.97604 21.2298 2.52195C21.1444 2.43717 21.0644 2.3593 20.9909 2.28878ZM20.4959 0.606174C20.4961 0.606012 20.4963 0.605867 20.9999 1.21959C21.5157 0.616031 21.5159 0.616172 21.5161 0.616328L21.5178 0.617813L21.5217 0.621174C21.5249 0.623939 21.5294 0.627748 21.535 0.632586C21.5461 0.642262 21.562 0.656055 21.5822 0.673834C21.6226 0.709385 21.6805 0.760902 21.7533 0.827326C21.8989 0.960117 22.1047 1.15281 22.3506 1.39692C22.8415 1.8842 23.4971 2.58109 24.1546 3.41939C25.4427 5.06182 26.8524 7.38971 26.8524 9.81056C26.8524 13.0052 24.2203 15.5738 20.9999 15.5738C17.7795 15.5738 15.1475 13.0052 15.1475 9.81056C15.1475 7.30686 16.5533 4.98051 17.8485 3.35108C18.5077 2.52174 19.1651 1.83967 19.6574 1.36481C19.9041 1.12692 20.1106 0.939842 20.2568 0.811049C20.33 0.746625 20.3882 0.696701 20.4289 0.662211C20.4493 0.644963 20.4653 0.631567 20.4766 0.62214C20.4823 0.617426 20.4868 0.613703 20.4901 0.610986L20.4941 0.607667L20.4959 0.606174Z" fill="#264EAB"/>
<path fill-rule="evenodd" clip-rule="evenodd" d="M0 6.76718C0 6.30734 0.367266 5.93457 0.820312 5.93457H12.6812C12.9413 5.93457 13.1859 6.05974 13.3406 6.27193C13.4953 6.48412 13.5417 6.75819 13.4657 7.01062C13.1708 7.9896 13.0011 9.00914 13.0011 10.0604C13.0011 14.455 16.5701 18.0398 20.9999 18.0398C25.4297 18.0398 28.9988 14.455 28.9988 10.0604C28.9988 9.02514 28.8195 8.00804 28.5075 7.02165C28.4274 6.76837 28.4714 6.4915 28.6258 6.27658C28.7802 6.06167 29.0265 5.93457 29.2886 5.93457H41.1797C41.6327 5.93457 42 6.30734 42 6.76718C42 7.22701 41.6327 7.59979 41.1797 7.59979H30.3626C30.5396 8.39582 30.6394 9.21818 30.6394 10.0604C30.6394 15.3992 26.3115 19.7051 20.9999 19.7051C15.6884 19.7051 11.3604 15.3992 11.3604 10.0604C11.3604 9.21464 11.454 8.39284 11.6212 7.59979H0.820312C0.367266 7.59979 0 7.22701 0 6.76718Z" fill="#264EAB"/>
<path fill-rule="evenodd" clip-rule="evenodd" d="M4.13086 22.1148C4.13086 21.5444 4.57113 21.082 5.11424 21.082H6.5901C7.13321 21.082 7.57348 21.5444 7.57348 22.1148C7.57348 22.6852 7.13321 23.1476 6.5901 23.1476H5.11424C4.57113 23.1476 4.13086 22.6852 4.13086 22.1148Z" fill="#264EAB"/>
<path fill-rule="evenodd" clip-rule="evenodd" d="M12.3936 22.1148C12.3936 21.5444 12.7458 21.082 13.1803 21.082H14.3609C14.7954 21.082 15.1477 21.5444 15.1477 22.1148C15.1477 22.6852 14.7954 23.1476 14.3609 23.1476H13.1803C12.7458 23.1476 12.3936 22.6852 12.3936 22.1148Z" fill="#264EAB"/>
<path fill-rule="evenodd" clip-rule="evenodd" d="M19.9668 22.1148C19.9668 21.5444 20.231 21.082 20.5568 21.082H21.4423C21.7682 21.082 22.0324 21.5444 22.0324 22.1148C22.0324 22.6852 21.7682 23.1476 21.4423 23.1476H20.5568C20.231 23.1476 19.9668 22.6852 19.9668 22.1148Z" fill="#264EAB"/>
<path fill-rule="evenodd" clip-rule="evenodd" d="M26.8525 22.1148C26.8525 21.5444 27.2048 21.082 27.6392 21.082H28.8199C29.2544 21.082 29.6066 21.5444 29.6066 22.1148C29.6066 22.6852 29.2544 23.1476 28.8199 23.1476H27.6392C27.2048 23.1476 26.8525 22.6852 26.8525 22.1148Z" fill="#264EAB"/>
<path fill-rule="evenodd" clip-rule="evenodd" d="M34.4258 22.1148C34.4258 21.5444 34.8661 21.082 35.4092 21.082H36.885C37.4281 21.082 37.8684 21.5444 37.8684 22.1148C37.8684 22.6852 37.4281 23.1476 36.885 23.1476H35.4092C34.8661 23.1476 34.4258 22.6852 34.4258 22.1148Z" fill="#264EAB"/>
</svg>
