<svg width="12" height="18" viewBox="0 0 12 18" fill="none" xmlns="http://www.w3.org/2000/svg">
<path opacity="0.7" d="M0.999387 8.29776L9.00962 0.287681C9.19488 0.102268 9.4422 0.00012207 9.7059 0.00012207C9.96961 0.00012207 10.2169 0.102268 10.4022 0.287681L10.9921 0.877432C11.3759 1.26172 11.3759 1.8863 10.9921 2.27001L4.2657 8.99639L10.9996 15.7302C11.1848 15.9157 11.2871 16.1628 11.2871 16.4264C11.2871 16.6902 11.1848 16.9374 10.9996 17.123L10.4097 17.7126C10.2242 17.898 9.97707 18.0001 9.71337 18.0001C9.44966 18.0001 9.20235 17.898 9.01708 17.7126L0.999387 9.69517C0.813682 9.50917 0.711682 9.26083 0.712268 8.99683C0.711682 8.73181 0.813682 8.48361 0.999387 8.29776Z" fill="#101014"/>
</svg>
