<svg width="21" height="21" viewBox="0 0 21 21" fill="none" xmlns="http://www.w3.org/2000/svg">
<path d="M10.5 8.46735L17.7955 1.17115L17.7955 1.17114C18.357 0.609625 19.2674 0.609615 19.8289 1.17114C20.3903 1.73265 20.3904 2.64304 19.8289 3.20454L19.8289 3.20454L12.5326 10.5L19.8289 17.7955L19.8289 17.7955C20.3904 18.357 20.3904 19.2674 19.8289 19.8289C19.2674 20.3903 18.357 20.3904 17.7955 19.8289L10.5 12.5326L3.20457 19.8289L3.02779 19.6521L3.20457 19.8289C2.64305 20.3904 1.73265 20.3904 1.17117 19.8289C0.609661 19.2673 0.609652 18.357 1.17118 17.7955L8.46739 10.5L1.17115 3.20454L1.34736 3.0283L1.17114 3.20453C0.609627 2.64302 0.609615 1.73262 1.17114 1.17114L10.5 8.46735ZM10.5 8.46735L3.20454 1.17115L3.02775 1.34791L10.5 8.46735Z" fill="#264EAB" stroke="#264EAB" stroke-width="0.5"/>
</svg>
