<svg width="22" height="22" viewBox="0 0 22 22" fill="none" xmlns="http://www.w3.org/2000/svg">
<g clip-path="url(#clip0_987_175)">
<g clip-path="url(#clip1_987_175)">
<path d="M21.5304 16.3552C20.8621 17.5762 19.5843 18.3334 18.1937 18.3334H11.1097C11.1564 18.4278 11.2087 18.5204 11.2866 18.5965L14.0632 21.208C14.2474 21.3813 14.2566 21.6709 14.0824 21.8561C13.9917 21.9524 13.8707 22.0009 13.7488 22.0009C13.636 22.0009 13.5233 21.9597 13.4344 21.8763L10.6504 19.2583C10.2783 18.8925 10.0757 18.3948 10.0839 17.8833C10.0839 17.8805 10.0821 17.8787 10.0821 17.8759C10.0821 17.875 10.0821 17.8741 10.0821 17.8723C10.0821 17.8695 10.0821 17.8668 10.0821 17.8631C10.0949 17.38 10.2902 16.9263 10.633 16.5835L13.4307 13.8793C13.6149 13.7042 13.9055 13.7079 14.0788 13.8903C14.2548 14.0727 14.2502 14.3624 14.0678 14.5384L11.2756 17.2379C11.2243 17.2893 11.1922 17.3553 11.1546 17.4176H18.1937C19.2479 17.4176 20.2186 16.8429 20.7264 15.9161C21.2214 15.0095 21.193 13.9004 20.6522 13.0213L19.7016 11.474C19.5687 11.2585 19.6365 10.9762 19.8519 10.8433C20.0683 10.7122 20.3506 10.7773 20.4826 10.9945L21.4332 12.5419C22.1454 13.7005 22.183 15.1617 21.5304 16.357V16.3552ZM13.295 2.20278L17.8316 8.80187C17.7665 8.80187 17.7005 8.81195 17.6364 8.7982L13.8533 7.92003C13.6058 7.85953 13.3601 8.01628 13.3024 8.26287C13.2455 8.50945 13.3986 8.75603 13.6452 8.81287L17.4356 9.69287C17.5685 9.72128 18.3083 9.72678 18.8097 9.46003C19.3111 9.19328 19.5678 8.73128 19.6714 8.2262L20.357 4.46603C20.4019 4.2167 20.2369 3.97837 19.9885 3.93253C19.7429 3.88395 19.5009 4.05078 19.455 4.30103L18.7712 8.05112C18.7483 8.16387 18.6979 8.2647 18.6392 8.35912L14.0504 1.68303C13.3216 0.626116 12.1043 0.0256992 10.8393 0.0229492C9.4432 0.0421992 8.1672 0.819532 7.52553 2.02403L6.72528 3.30645C6.59145 3.52095 6.65653 3.80328 6.87103 3.93803C7.08461 4.07095 7.36786 4.0077 7.5017 3.79137L8.31845 2.48237C8.81895 1.54553 9.78878 0.954283 10.8521 0.939616C11.8036 0.895616 12.7414 1.39795 13.295 2.20278ZM7.79136 17.4167H3.7397C2.7222 17.4167 1.77895 16.8658 1.27845 15.9812C0.763281 15.0673 0.793531 13.9508 1.3582 13.0671L5.49786 6.59637C5.52628 6.64862 5.56386 6.69537 5.5822 6.7522L6.67395 10.4794C6.7317 10.6792 6.91503 10.8084 7.11303 10.8084C7.1552 10.8084 7.1992 10.8029 7.24228 10.7901C7.4852 10.7186 7.62453 10.4647 7.55303 10.2209L6.45945 6.48637C6.31553 6.02437 6.00386 5.63937 5.5822 5.4047C5.1312 5.1517 4.58853 5.09762 4.08345 5.25895L0.471781 6.50745C0.232531 6.58995 0.106031 6.8512 0.187614 7.09045C0.269198 7.3297 0.532281 7.4562 0.770614 7.37462L4.37403 6.12978C4.49228 6.09128 4.6142 6.08212 4.73428 6.09037L0.587281 12.573C-0.160719 13.7436 -0.201969 15.2222 0.480948 16.4313C1.14461 17.6046 2.39311 18.3334 3.74061 18.3334H7.79228C8.04528 18.3334 8.25061 18.128 8.25061 17.875C8.25061 17.622 8.04528 17.4167 7.79228 17.4167H7.79136Z" fill="#101014"/>
</g>
</g>
<defs>
<clipPath id="clip0_987_175">
<rect width="22" height="22" fill="white"/>
</clipPath>
<clipPath id="clip1_987_175">
<rect width="22" height="22" fill="white"/>
</clipPath>
</defs>
</svg>
