<svg width="42" height="22" viewBox="0 0 42 22" fill="none" xmlns="http://www.w3.org/2000/svg">
<path d="M29.9832 9.43524C30.1494 9.61017 30.3855 9.69764 30.6129 9.69764C30.7966 9.69764 30.9803 9.64516 31.1377 9.52271L34.9861 6.62765V7.94836C34.9861 8.43816 35.3797 8.823 35.8608 8.823C36.3418 8.823 36.7354 8.43816 36.7354 7.94836V4.44979C36.7354 3.96874 36.3418 3.57515 35.8608 3.57515H32.3622C31.8811 3.57515 31.4876 3.96874 31.4876 4.44979C31.4876 4.93959 31.8811 5.32443 32.3622 5.32443H33.8054L30.7091 7.65972L24.2455 0.898751C23.9132 0.557641 23.3621 0.540148 23.0123 0.872511C22.6624 1.20487 22.6537 1.76465 22.986 2.1145L29.9832 9.43524Z" fill="#264EAB"/>
<path d="M12.49 9.43524C12.6562 9.61017 12.8923 9.69764 13.1198 9.69764C13.3034 9.69764 13.4871 9.64516 13.6445 9.52271L17.493 6.62765V7.94836C17.493 8.43816 17.8865 8.823 18.3676 8.823C18.8486 8.823 19.2422 8.43816 19.2422 7.94836V4.44979C19.2422 3.96874 18.8486 3.57515 18.3676 3.57515H14.869C14.388 3.57515 13.9944 3.96874 13.9944 4.44979C13.9944 4.93959 14.388 5.32443 14.869 5.32443H16.3122L13.216 7.65972L6.75236 0.898751C6.42 0.557641 5.86898 0.540148 5.51912 0.872511C5.16926 1.20487 5.16052 1.76465 5.49288 2.1145L12.49 9.43524Z" fill="#264EAB"/>
<path d="M41.1081 17.5698C39.7787 17.5698 39.079 18.1733 38.5192 18.6631C38.0644 19.0567 37.7583 19.3191 37.076 19.3191C36.3938 19.3191 36.0964 19.0567 35.6329 18.6631C35.0731 18.1821 34.3821 17.5698 33.0439 17.5698C31.7145 17.5698 31.0148 18.1733 30.455 18.6631C30.0002 19.0567 29.6941 19.3191 29.0118 19.3191C28.3296 19.3191 28.0322 19.0567 27.5774 18.6631C27.0177 18.1733 26.3267 17.5698 24.9885 17.5698C23.659 17.5698 22.9593 18.1733 22.3996 18.6631C21.9447 19.0567 21.6386 19.3191 20.9651 19.3191C20.2829 19.3191 19.9855 19.0567 19.5307 18.6631C18.971 18.1733 18.28 17.5698 16.9418 17.5698C15.6123 17.5698 14.9126 18.1733 14.3529 18.6631C13.898 19.0567 13.5919 19.3191 12.9184 19.3191C12.2362 19.3191 11.9388 19.0567 11.484 18.6631C10.9243 18.1733 10.2333 17.5698 8.8951 17.5698C7.56565 17.5698 6.86593 18.1733 6.31491 18.6631C5.8601 19.0567 5.55397 19.3191 4.8805 19.3191C4.20702 19.3191 3.9009 19.0567 3.44609 18.6631C2.90381 18.1821 2.2041 17.5698 0.874641 17.5698C0.393588 17.5698 0 17.9634 0 18.4445C0 18.9255 0.393588 19.3191 0.874641 19.3191C1.54811 19.3191 1.85424 19.5815 2.30905 19.9751C2.86882 20.4561 3.55979 21.0684 4.88924 21.0684C6.2187 21.0684 6.91841 20.4649 7.47818 19.9751C7.93299 19.5815 8.23912 19.3191 8.91259 19.3191C9.59481 19.3191 9.89219 19.5815 10.347 19.9751C10.9068 20.4649 11.5977 21.0684 12.9359 21.0684C14.2654 21.0684 14.9651 20.4649 15.5249 19.9751C15.9797 19.5815 16.2858 19.3191 16.9593 19.3191C17.6415 19.3191 17.9389 19.5815 18.3937 19.9751C18.9535 20.4649 19.6444 21.0684 20.9826 21.0684C22.3121 21.0684 23.0118 20.4649 23.5716 19.9751C24.0264 19.5815 24.3325 19.3191 25.006 19.3191C25.6795 19.3191 25.9856 19.5815 26.4404 19.9751C27.0002 20.4649 27.6911 21.0684 29.0293 21.0684C30.3588 21.0684 31.0585 20.4649 31.6183 19.9751C32.0731 19.5815 32.3792 19.3191 33.0614 19.3191C33.7437 19.3191 34.041 19.5815 34.5046 19.9751C35.0644 20.4561 35.7553 21.0684 37.0935 21.0684C38.423 21.0684 39.1227 20.4649 39.6825 19.9751C40.1373 19.5815 40.4434 19.3191 41.1256 19.3191C41.6067 19.3191 42.0003 18.9255 42.0003 18.4445C42.0003 17.9634 41.5892 17.5698 41.1081 17.5698Z" fill="#264EAB"/>
<path d="M41.1081 14.0708H0.874641C0.393588 14.0708 0 14.4644 0 14.9454C0 15.4265 0.393588 15.8201 0.874641 15.8201H41.1081C41.5892 15.8201 41.9828 15.4265 41.9828 14.9454C41.9828 14.4644 41.5892 14.0708 41.1081 14.0708Z" fill="#264EAB"/>
</svg>
