<svg width="28" height="55" viewBox="0 0 28 55" fill="none" xmlns="http://www.w3.org/2000/svg">
<path d="M19.705 5.16794V1.4749C19.705 1.25446 19.4752 1.1093 19.2762 1.20399L13.7194 3.84707M19.705 5.16794L27 18.0687V41.687L20.5468 46.7558M19.705 5.16794L13.7194 8.015M6.14389 11.6183V7.6399C6.14389 7.52414 6.21049 7.4187 6.31502 7.36898L13.7194 3.84707M6.14389 11.6183L1 24.5191V48.2366L6.14389 50.3494L12.5971 53M6.14389 11.6183L8.37179 17.374L12.5971 28.2901V53M6.14389 11.6183L13.7194 8.015M12.5971 53L20.5468 46.7558M13.7194 8.015V3.84707M13.7194 8.015L20.3597 22.8321L20.5468 46.7558" stroke="#101014" stroke-width="1.8"/>
</svg>
