<svg width="20" height="37" viewBox="0 0 20 37" fill="none" xmlns="http://www.w3.org/2000/svg">
<path opacity="0.6" d="M13.9496 3.80534V1.46926C13.9496 1.25022 13.7225 1.10503 13.5237 1.19696L9.80576 2.91629M13.9496 3.80534L19 12.4886V28.3855L14.5324 31.7972M13.9496 3.80534L9.80576 5.72164M4.56115 8.14695V5.5334C4.56115 5.41646 4.6291 5.31018 4.73523 5.2611L9.80576 2.91629M4.56115 8.14695L1 16.8302M4.56115 8.14695L6.10355 12.021M4.56115 8.14695L9.80576 5.72164M1 16.8302V32.7939L4.56115 34.216M1 16.8302L4.56115 15.0935M9.02878 36V19.3683M9.02878 36L4.56115 34.216M9.02878 36L14.5324 31.7972M9.02878 19.3683L6.10355 12.021M9.02878 19.3683L4.56115 15.0935M6.10355 12.021L4.56115 15.0935M4.56115 15.0935V34.216M9.80576 5.72164V2.91629M9.80576 5.72164L14.4029 15.6947L14.5324 31.7972" stroke="#101014" stroke-opacity="0.4"/>
</svg>
