<svg width="137" height="129" viewBox="0 0 137 129" fill="none" xmlns="http://www.w3.org/2000/svg">
<path d="M70.5 91C70.5 105.057 82.5615 116.5 97.5 116.5C112.438 116.5 124.5 105.057 124.5 91C124.5 76.9428 112.438 65.5 97.5 65.5C82.5615 65.5 70.5 76.9428 70.5 91Z" fill="white" stroke="#101014"/>
<path d="M0.5 60C0.5 92.8532 27.5789 119.5 61 119.5C94.4211 119.5 121.5 92.8532 121.5 60C121.5 27.1468 94.4211 0.5 61 0.5C27.5789 0.5 0.5 27.1468 0.5 60Z" fill="white" stroke="#101014"/>
<circle cx="10" cy="10" r="9.5" transform="matrix(-1 0 0 1 137 109)" fill="white" stroke="#101014"/>
<path d="M81.1285 58.3522V76.6868C81.1285 82.3728 76.5013 87 70.8153 87H43.3133C37.6272 87 33 82.3728 33 76.6868V49.1849C33 43.4989 37.6272 38.8717 43.3133 38.8717H63.9398C64.5723 38.8717 65.0857 39.3851 65.0857 40.0177C65.0857 40.6502 64.5723 41.1636 63.9398 41.1636H43.3133C38.89 41.1636 35.2918 44.7617 35.2918 49.1849V76.6868C35.2918 81.11 38.89 84.7082 43.3133 84.7082H70.8153C75.2385 84.7082 78.8367 81.11 78.8367 76.6868V58.3522C78.8367 57.7197 79.35 57.2063 79.9826 57.2063C80.6151 57.2063 81.1285 57.7197 81.1285 58.3522ZM86.0835 43.2102L65.0375 65.7273C64.9275 67.5516 64.24 69.2682 62.9841 70.6433C61.4669 72.3003 59.3102 73.2514 57.0643 73.2514H47.8969C46.7854 73.2514 45.7701 72.738 45.1146 71.8488C44.4569 70.955 44.2689 69.8343 44.599 68.7709C45.7449 65.081 49.272 58.5287 55.2147 57.3805C55.6341 57.3003 56.0558 57.2888 56.4775 57.2728C76.6892 34.0245 76.7603 33.9535 76.7969 33.9168C79.3592 31.3569 83.5258 31.3637 86.0835 33.9214C88.6388 36.4814 88.6388 40.6502 86.0835 43.2102ZM64.6754 62.7548L69.4104 57.6899C68.6701 54.9855 66.3049 52.9687 63.5135 52.6754C61.9917 54.424 60.5249 56.1131 59.2117 57.6234C60.172 57.9122 61.0979 58.3339 61.9161 58.9527C63.243 59.9519 64.1804 61.2697 64.6754 62.7571V62.7548ZM62.7686 64.7006C62.6311 63.1536 61.8381 61.7625 60.5341 60.7793C59.1315 59.7227 57.3484 59.2965 55.6479 59.6311C50.7663 60.573 47.78 66.2453 46.7854 69.4492C46.6731 69.809 46.7373 70.1872 46.9573 70.4874C47.1773 70.7854 47.5211 70.9572 47.8946 70.9572H57.062C58.6662 70.9572 60.2064 70.2789 61.2904 69.0963C62.3882 67.8954 62.913 66.3346 62.7686 64.7006ZM84.4608 35.5417C82.797 33.8733 80.0834 33.8733 78.4173 35.5371C78.2454 35.7319 71.5968 43.3775 65.2415 50.6861C67.868 51.4263 70.0589 53.3148 71.1659 55.8106L84.4333 41.6173C86.1224 39.9237 86.1224 37.2102 84.4585 35.544L84.4608 35.5417Z" fill="#101014"/>
</svg>
