<svg width="36" height="47" viewBox="0 0 36 47" fill="none" xmlns="http://www.w3.org/2000/svg">
<path d="M31.4805 7.83301H23.6109C21.4408 7.83301 19.6761 9.58956 19.6761 11.7495V19.5825C19.6761 20.2953 19.8689 20.965 20.2053 21.5408H15.3635L12.3494 15.5387C11.1749 13.2025 8.81596 11.7495 6.18947 11.7495H3.93482C1.76477 11.7495 0 13.5061 0 15.666V27.7308C0 29.084 0.718104 30.3627 1.88478 31.0755L9.83704 35.8066V47H11.8045V34.6943L2.90586 29.3992C2.32744 29.0467 1.96741 28.4084 1.96741 27.7308V15.666C1.96741 14.587 2.84881 13.7078 3.93482 13.7078H6.18947C6.77576 13.7078 7.34237 13.8096 7.86963 13.9995V28.4044L9.83704 29.5755V15.3174C10.1302 15.6425 10.384 16.0107 10.5886 16.416L14.1496 23.501H31.4805C33.6506 23.501 35.4153 21.7444 35.4153 19.5845V11.7515C35.4153 9.59152 33.6506 7.83301 31.4805 7.83301ZM33.4479 19.5825C33.4479 20.6615 32.5665 21.5408 31.4805 21.5408H23.6109C22.5249 21.5408 21.6435 20.6615 21.6435 19.5825V11.7495C21.6435 10.6705 22.5249 9.79126 23.6109 9.79126H31.4805C32.5665 9.79126 33.4479 10.6705 33.4479 11.7495V19.5825ZM6.8879 9.79126C9.60095 9.79126 11.8064 7.5941 11.8064 4.89563C11.8064 2.19716 9.60095 0 6.8879 0C4.17484 0 1.96938 2.19716 1.96938 4.89563C1.96938 7.5941 4.17484 9.79126 6.8879 9.79126ZM6.8879 1.95825C8.51495 1.95825 9.83901 3.27616 9.83901 4.89563C9.83901 6.5151 8.51495 7.83301 6.8879 7.83301C5.26085 7.83301 3.93678 6.5151 3.93678 4.89563C3.93678 3.27616 5.26085 1.95825 6.8879 1.95825ZM1.96938 35.2485L3.93678 36.4196V46.998H1.96938V35.2485Z" fill="black"/>
</svg>
