<svg width="44" height="44" viewBox="0 0 44 44" fill="none" xmlns="http://www.w3.org/2000/svg">
<g clip-path="url(#clip0_987_198)">
<path d="M43.0835 14.6667H38.0363C35.7355 14.6667 33.5978 15.9097 32.4593 17.9117C32.067 18.5992 31.7186 19.2078 31.5848 19.4315C29.5846 22.7718 26.1013 24.915 25.709 25.1497C24.2771 26.0058 22.2953 25.7253 21.1476 24.497C20.451 23.7527 20.1081 22.7553 20.1796 21.6865C20.2548 20.5553 20.9661 19.4663 22.0808 18.7715C24.4256 17.3103 25.6668 15.5742 25.6668 13.75C25.6668 12.4025 25.0765 11.1283 24.0443 10.2538C23.0158 9.383 21.6591 9.00533 20.3116 9.229C18.1373 9.58833 16.5001 11.6215 16.5001 13.9572V22.9167C16.5001 23.7252 16.1481 24.4897 15.5303 25.014C14.9051 25.5457 14.1113 25.762 13.2808 25.6282C11.981 25.4173 11.0001 24.167 11.0001 22.7205V11.9167C11.0001 9.83767 11.6326 7.9035 12.7161 6.2975L13.2698 5.55867C13.2698 5.55867 13.2735 5.5495 13.2753 5.54583C15.127 3.28167 17.9375 1.83333 21.0835 1.83333H43.0835C43.5895 1.83333 44.0001 1.42267 44.0001 0.916667C44.0001 0.410667 43.5895 0 43.0835 0H17.9283C15.028 0 12.2101 0.583 9.5518 1.73617L2.75563 4.67867C1.67947 5.137 0.799468 6.04083 0.339301 7.15917C-0.122699 8.294 -0.111699 9.53883 0.364968 10.6627C0.841634 11.7883 1.72713 12.6647 2.86197 13.1285C3.40647 13.3503 3.98213 13.464 4.5743 13.464C4.7503 13.464 4.9208 13.431 5.09497 13.4108L2.5118 16.8575C1.87013 17.908 1.6758 19.14 1.96363 20.3225C2.24963 21.5178 3.4798 23.8297 6.3948 23.8297C6.75963 23.8297 8.68647 23.2668 9.1833 22.8947C9.26397 25.1552 10.8645 27.093 12.9893 27.4395C14.3295 27.6613 15.6953 27.2855 16.7201 26.411C17.7468 25.5383 18.3353 24.266 18.3353 22.9185V13.959C18.3353 12.5088 19.3143 11.2548 20.6123 11.0403C21.441 10.9102 22.2348 11.121 22.8618 11.6545C23.4815 12.1807 23.8353 12.9452 23.8353 13.7518C23.8353 15.2148 22.354 16.445 21.1128 17.2187C19.4976 18.2252 18.4673 19.8513 18.3518 21.5673C18.2455 23.1458 18.7643 24.6327 19.8111 25.751C20.8506 26.8638 22.3191 27.5018 23.8371 27.5018C24.8308 27.5018 25.8043 27.2323 26.6531 26.7245C27.3571 26.3047 30.9761 24.0222 33.1615 20.3738C33.299 20.1447 33.6565 19.5232 34.0543 18.821C34.8665 17.391 36.3936 16.5037 38.0381 16.5037H43.0853C43.5913 16.5037 44.002 16.093 44.002 15.587C44.002 15.081 43.5913 14.6703 43.0853 14.6703L43.0835 14.6667ZM5.68347 11.4015C4.9923 11.6967 4.22413 11.7058 3.55497 11.4327C2.87297 11.154 2.3413 10.6278 2.05347 9.94767C1.76747 9.27483 1.76197 8.5305 2.03697 7.85217C2.31197 7.17933 2.83813 6.63667 3.4798 6.3635L10.2796 3.41917C11.552 2.86917 12.8646 2.46767 14.2048 2.20367C13.3046 2.84167 12.4961 3.59883 11.8068 4.45683C11.8068 4.45683 11.805 4.45683 11.8031 4.4605L7.0878 10.7525L5.68347 11.4015ZM7.0603 21.9138C6.76147 21.9853 6.45713 22.0092 6.16013 21.9853C5.7403 21.9487 5.3443 21.8167 4.9758 21.5912C4.3543 21.2135 3.91797 20.6103 3.7438 19.8917C3.57147 19.1822 3.69063 18.4452 4.02613 17.886L9.21447 10.967C9.1888 11.2823 9.1668 11.5977 9.1668 11.9167V20.0787L8.7488 20.7093C8.3913 21.296 7.7588 21.7452 7.05847 21.9157L7.0603 21.9138ZM22.9168 29.3333H13.7501C11.222 29.3333 9.1668 31.3903 9.1668 33.9167V39.4167C9.1668 41.943 11.222 44 13.7501 44H22.9168C25.445 44 27.5001 41.943 27.5001 39.4167V33.9167C27.5001 31.3903 25.445 29.3333 22.9168 29.3333ZM25.6668 39.4167C25.6668 40.9328 24.433 42.1667 22.9168 42.1667H13.7501C12.234 42.1667 11.0001 40.9328 11.0001 39.4167V33.9167C11.0001 32.4005 12.234 31.1667 13.7501 31.1667H22.9168C24.433 31.1667 25.6668 32.4005 25.6668 33.9167V39.4167ZM22.0001 35.75C22.0001 36.256 21.5895 36.6667 21.0835 36.6667H15.5835C15.0775 36.6667 14.6668 36.256 14.6668 35.75C14.6668 35.244 15.0775 34.8333 15.5835 34.8333H21.0835C21.5895 34.8333 22.0001 35.244 22.0001 35.75Z" fill="black"/>
</g>
<defs>
<clipPath id="clip0_987_198">
<rect width="44" height="44" fill="white"/>
</clipPath>
</defs>
</svg>
