<svg width="36" height="36" viewBox="0 0 36 36" fill="none" xmlns="http://www.w3.org/2000/svg">
<circle cx="18" cy="18" r="18" fill="#264EAB"/>
<path d="M17.3018 24C17.0256 24 16.8018 23.7761 16.8018 23.5V12.5C16.8018 12.2239 17.0256 12 17.3018 12H18.6893C18.9655 12 19.1893 12.2239 19.1893 12.5V23.5C19.1893 23.7761 18.9655 24 18.6893 24H17.3018ZM12.5 19.1894C12.2239 19.1894 12 18.9655 12 18.6894V17.3018C12 17.0256 12.2239 16.8018 12.5 16.8018H23.5C23.7761 16.8018 24 17.0256 24 17.3018V18.6893C24 18.9655 23.7761 19.1894 23.5 19.1894H12.5Z" fill="white"/>
</svg>
