<svg width="52" height="52" viewBox="0 0 52 52" fill="none" xmlns="http://www.w3.org/2000/svg">
<path d="M51.9762 27.1288C51.3803 41.0757 39.9685 52 26 52C15.6758 52 6.36133 45.864 2.22733 36.5387C2.21217 36.6383 2.16667 36.7293 2.16667 36.8333V44.4167C2.16667 45.0147 1.68133 45.5 1.08333 45.5C0.485333 45.5 0 45.0147 0 44.4167V36.8333C0 34.4435 1.9435 32.5 4.33333 32.5H11.9167C12.5147 32.5 13 32.9853 13 33.5833C13 34.1813 12.5147 34.6667 11.9167 34.6667H4.33333C4.16217 34.6667 4.0105 34.7273 3.85017 34.7642C7.43167 43.81 16.2132 49.8333 26 49.8333C38.805 49.8333 49.2635 39.8212 49.8095 27.0378C49.8355 26.442 50.2407 25.9697 50.9383 26C51.5342 26.0282 52 26.5308 51.9762 27.1288ZM50.9167 6.5C50.3187 6.5 49.8333 6.98533 49.8333 7.58333V15.1667C49.8333 15.2707 49.7878 15.3595 49.7748 15.457C45.6387 6.136 36.3263 0 26 0C12.0315 0 0.621833 10.9243 0.0238333 24.8712C-0.00216667 25.4692 0.4615 25.974 1.0595 26H1.10717C1.6835 26 2.1645 25.545 2.18833 24.9622C2.7365 12.1788 13.195 2.16667 26 2.16667C35.789 2.16667 44.5727 8.19 48.1498 17.2358C47.9895 17.2727 47.8378 17.3333 47.6667 17.3333H40.0833C39.4853 17.3333 39 17.8187 39 18.4167C39 19.0147 39.4853 19.5 40.0833 19.5H47.6667C50.0565 19.5 52 17.5565 52 15.1667V7.58333C52 6.98533 51.5147 6.5 50.9167 6.5ZM20.5833 36.8333C17.5977 36.8333 15.1667 34.4045 15.1667 31.4167V20.5833C15.1667 17.5955 17.5977 15.1667 20.5833 15.1667H31.4167C34.4045 15.1667 36.8333 17.5955 36.8333 20.5833V31.4167C36.8333 34.4045 34.4045 36.8333 31.4167 36.8333H20.5833ZM20.5833 34.6667H31.4167C33.2085 34.6667 34.6667 33.2085 34.6667 31.4167V20.5833C34.6667 18.7915 33.2085 17.3333 31.4167 17.3333H20.5833C18.7915 17.3333 17.3333 18.7915 17.3333 20.5833V31.4167C17.3333 33.2085 18.7915 34.6667 20.5833 34.6667ZM23.8333 23.8333H28.1667C28.7647 23.8333 29.25 23.348 29.25 22.75C29.25 22.152 28.7647 21.6667 28.1667 21.6667H23.8333C23.2353 21.6667 22.75 22.152 22.75 22.75C22.75 23.348 23.2353 23.8333 23.8333 23.8333Z" fill="black"/>
</svg>
