<svg width="22" height="22" viewBox="0 0 22 22" fill="none" xmlns="http://www.w3.org/2000/svg">
<path d="M10.9813 21.987L10.4075 21.7001C8.39634 20.6945 1.83301 16.9435 1.83301 10.8834V4.70695C1.83301 3.71695 2.46367 2.84245 3.40326 2.5317L10.9997 0.0126953L18.5961 2.5317C19.5348 2.84336 20.1663 3.71786 20.1663 4.70695V10.8834C20.1663 17.7575 13.592 20.9374 11.5772 21.7478L10.9813 21.987ZM10.9997 0.978862L3.69201 3.40161C3.12826 3.58861 2.74967 4.11295 2.74967 4.70695V10.8834C2.74967 16.4183 8.92434 19.9346 10.8173 20.8806L11.0226 20.9833L11.2353 20.898C13.1153 20.1418 19.2497 17.1837 19.2497 10.8844V4.70603C19.2497 4.11295 18.8711 3.5877 18.3083 3.4007L10.9997 0.978862Z" fill="#101014"/>
<path d="M9.62617 13.7499C9.27417 13.7499 8.92126 13.6161 8.65267 13.3475L5.63867 10.4123L6.27759 9.75506L9.29617 12.6948C9.48042 12.8781 9.771 12.8772 9.94884 12.6994L15.7193 7.00781L16.3637 7.66048L10.5951 13.3502C10.3283 13.617 9.97726 13.7508 9.62617 13.7508V13.7499Z" fill="#101014"/>
</svg>
