<svg width="24" height="24" viewBox="0 0 24 24" fill="none" xmlns="http://www.w3.org/2000/svg">
<g clip-path="url(#clip0_20_26)">
<path d="M4.077 1.287C3.73944 1.56828 3.46795 1.92044 3.28181 2.31846C3.09568 2.71648 2.99946 3.15061 3 3.59L3 19.758L2.649 19.8C1.91942 19.886 1.24673 20.2366 0.758478 20.7855C0.270223 21.3344 0.000341708 22.0434 -5.34153e-08 22.778L-4.37114e-08 23C-3.21184e-08 23.2652 0.105357 23.5196 0.292893 23.7071C0.48043 23.8946 0.734784 24 1 24C1.26522 24 1.51957 23.8946 1.70711 23.7071C1.89464 23.5196 2 23.2652 2 23L2 22.778C2.00003 22.5331 2.08996 22.2967 2.25272 22.1136C2.41547 21.9306 2.63975 21.8137 2.883 21.785L14.583 20.409C15.7998 20.2661 16.9218 19.6815 17.736 18.7661C18.5502 17.8507 19 16.6681 19 15.443L19 5C19 4.73478 18.8946 4.48043 18.7071 4.29289C18.5196 4.10536 18.2652 4 18 4C17.7348 4 17.4804 4.10536 17.2929 4.29289C17.1054 4.48043 17 4.73478 17 5L17 15.443C16.9983 16.0619 16.8051 16.6652 16.4471 17.1701C16.089 17.6749 15.5835 18.0567 15 18.263L15 6.343C15.0001 5.17071 14.5882 4.03566 13.8364 3.13618C13.0846 2.23669 12.0407 1.62996 10.887 1.422L6.533 0.636999C6.10101 0.558641 5.65707 0.576253 5.23264 0.688581C4.80821 0.80091 4.41368 1.00521 4.077 1.287ZM6.178 2.6L10.532 3.386C11.225 3.51087 11.852 3.87553 12.3032 4.41614C12.7544 4.95674 13.0011 5.63884 13 6.343L13 18.581L5 19.522L5 3.59C4.99912 3.4431 5.03062 3.29781 5.09225 3.16446C5.15389 3.03112 5.24415 2.91299 5.35661 2.81848C5.46907 2.72396 5.60097 2.65539 5.74294 2.61763C5.8849 2.57987 6.03344 2.57385 6.178 2.6Z" fill="#264EAB"/>
<path d="M24 17C24 15.8954 23.1046 15 22 15C20.8954 15 20 15.8954 20 17C20 18.1046 20.8954 19 22 19C23.1046 19 24 18.1046 24 17Z" fill="#264EAB"/>
<path d="M24 7C24 5.89543 23.1046 5 22 5C20.8954 5 20 5.89543 20 7C20 8.10457 20.8954 9 22 9C23.1046 9 24 8.10457 24 7Z" fill="#264EAB"/>
</g>
<defs>
<clipPath id="clip0_20_26">
<rect width="24" height="24" fill="white" transform="translate(0 24) rotate(-90)"/>
</clipPath>
</defs>
</svg>
