<svg width="22" height="29" viewBox="0 0 22 29" fill="none" xmlns="http://www.w3.org/2000/svg">
<path d="M1 1H17.9432M1 1L7.89956 1.88525M1 1V23.4852L2.04803 27.2033M17.9432 1L14.1878 1.88525M17.9432 1V2.37327M14.1878 1.88525L17.9432 2.37327M14.1878 1.88525V27.2033M21 2.77049H3.27074M21 2.77049V23.4852L19.952 27.2033M21 2.77049L17.9432 2.37327M3.27074 2.77049L7.89956 1.88525M3.27074 2.77049L3.18341 23.4852L2.04803 27.2033M7.89956 1.88525V27.2033M2.04803 27.2033H7.89956M2.04803 27.2033V28H19.952V27.2033M19.952 27.2033H14.1878M7.89956 27.2033H14.1878" stroke="#264EAB"/>
</svg>
