<svg width="30" height="20" viewBox="0 0 30 20" fill="none" xmlns="http://www.w3.org/2000/svg">
<path d="M26.6292 9.41534C26.7072 9.04116 26.7413 8.66698 26.7413 8.2928C26.7413 5.09822 24.0423 2.50234 20.7149 2.50234C19.9792 2.50234 19.2631 2.62863 18.5762 2.87652C17.0221 1.06642 14.6738 0 12.2282 0C7.74128 0 4.08256 3.46586 3.99974 7.75491C1.59308 8.76052 0 11.0758 0 13.6109C0 17.1328 2.98641 20 6.65487 20H23.18C26.5172 20 29.2308 17.3901 29.2308 14.1862C29.2308 12.2591 28.2662 10.5005 26.6292 9.41534ZM23.18 19.0645H6.65487C3.52231 19.0645 0.974359 16.6183 0.974359 13.6109C0.974359 11.3517 2.45538 9.29841 4.66231 8.50327C4.87179 8.42844 4.99846 8.22731 4.9741 8.01216C4.96923 7.97942 4.9741 7.942 4.9741 7.90458C4.9741 4.05987 8.22846 0.935454 12.2282 0.935454C14.4985 0.935454 16.6664 1.97848 18.0305 3.72311C18.1669 3.90084 18.4154 3.96165 18.62 3.8681C19.2874 3.58279 19.9938 3.43779 20.7149 3.43779C23.5015 3.43779 25.7669 5.61272 25.7669 8.2928C25.7669 8.69972 25.7133 9.11132 25.611 9.51356C25.5574 9.71469 25.6451 9.92049 25.8303 10.0281C27.3503 10.9214 28.2564 12.4743 28.2564 14.1862C28.2564 16.8756 25.9813 19.0645 23.18 19.0645Z" fill="#101014"/>
<path d="M18.1834 9.98331C18.2746 5.76253 13.685 5.38978 13.6373 5.38626C13.346 5.36646 13.1034 5.54557 13.0791 5.78717C13.0547 6.02877 13.2657 6.24177 13.5502 6.26334C13.7109 6.27566 17.4779 6.6044 17.1239 10.3613C17.112 10.4854 17.1638 10.6078 17.2644 10.6984C17.3649 10.7891 17.5002 10.8503 17.6531 10.8362C17.6702 10.8353 19.151 10.8186 19.9606 11.5764C20.4059 11.9936 20.5774 12.5912 20.4701 13.3539C20.4364 13.5955 20.6391 13.8142 20.9236 13.8432C20.9449 13.845 20.9656 13.8463 20.9858 13.8463C21.2445 13.8463 21.4684 13.6817 21.5 13.4586C21.6446 12.4288 21.3834 11.5953 20.7231 10.9805C19.9565 10.2663 18.8463 10.0489 18.1839 9.98375L18.1834 9.98331Z" fill="#101014"/>
</svg>
