<svg width="26" height="33" viewBox="0 0 26 33" fill="none" xmlns="http://www.w3.org/2000/svg">
<g opacity="0.4">
<path d="M1.43168 6.77865L2.77088 30.4525H5.00777C5.00777 30.4525 10.0917 31.6249 13.3961 31.5709C16.3402 31.5228 20.8525 30.4525 20.8525 30.4525H22.8097L24.2894 6.77865M1.43168 6.77865L1.40225 6.21943L1.34093 5.05438M1.43168 6.77865H24.2894M24.2894 6.77865L24.3243 6.21943L24.3942 5.10098M1.34093 5.05438L1.27961 3.88933L2.11845 3.14369L1.27961 2.49126L1 1H24.6738L24.4874 2.49126L23.5554 3.14369L24.4874 3.60971L24.3942 5.10098M1.34093 5.05438L12.8676 5.07768L24.3942 5.10098" stroke="black"/>
</g>
</svg>
