<svg width="24" height="24" viewBox="0 0 24 24" fill="none" xmlns="http://www.w3.org/2000/svg">
<g clip-path="url(#clip0_892_454)">
<path d="M15.998 4.224C15.862 3.505 15.209 3 14.477 3H13.538C13.254 3 13.024 3.23 13.024 3.514V7.486C13.024 7.77 13.254 8 13.538 8H14.484C15.254 8 15.929 7.435 16.014 6.67C16.066 6.202 15.9 5.765 15.597 5.524C15.911 5.195 16.095 4.739 15.998 4.224ZM14.524 7H14.024V6H14.524C14.8 6 15.024 6.224 15.024 6.5C15.024 6.776 14.8 7 14.524 7ZM14.524 5H14.024V4H14.524C14.8 4 15.024 4.224 15.024 4.5C15.024 4.776 14.8 5 14.524 5ZM17.65 4.375C17.644 4.424 17.64 4.545 17.758 4.625C17.771 4.625 18.267 4.843 18.813 5.045C19.826 5.419 20.08 6.152 19.98 6.714C19.847 7.459 19.136 8 18.289 8C17.842 8 17.412 7.882 17.047 7.667C16.749 7.491 16.708 7.076 16.964 6.844C17.13 6.694 17.376 6.658 17.569 6.772C17.779 6.896 18.03 6.965 18.289 6.965C18.66 6.965 18.922 6.745 18.96 6.533C19.011 6.247 18.586 6.067 18.454 6.018C17.831 5.788 17.269 5.537 17.269 5.537C16.772 5.221 16.553 4.734 16.625 4.228C16.703 3.69 17.096 3.252 17.652 3.084C18.252 2.903 18.781 3.066 19.142 3.255C19.421 3.401 19.488 3.771 19.284 4.011C19.143 4.177 18.911 4.231 18.711 4.145C18.512 4.059 18.236 3.99 17.95 4.075C17.707 4.148 17.659 4.31 17.65 4.375ZM9.999 3.5V6.478C9.999 6.739 10.19 6.972 10.449 6.998C10.747 7.027 10.999 6.793 10.999 6.5V3.5C10.999 3.224 11.223 3 11.499 3C11.775 3 11.999 3.224 11.999 3.5V6.5C11.999 7.352 11.285 8.041 10.424 7.998C9.618 7.958 8.999 7.263 8.999 6.456V3.499C8.999 3.223 9.223 2.999 9.499 2.999C9.775 2.999 9.999 3.224 9.999 3.5ZM6.959 6.532C7.01 6.246 6.585 6.066 6.453 6.017C5.83 5.787 5.268 5.536 5.268 5.536C4.771 5.22 4.552 4.733 4.624 4.227C4.702 3.689 5.095 3.251 5.651 3.083C6.251 2.902 6.78 3.065 7.141 3.254C7.42 3.4 7.487 3.77 7.283 4.01C7.142 4.176 6.91 4.23 6.71 4.144C6.511 4.058 6.235 3.989 5.949 4.074C5.706 4.147 5.658 4.308 5.649 4.373C5.643 4.422 5.639 4.543 5.757 4.623C5.77 4.623 6.266 4.841 6.812 5.043C7.825 5.417 8.079 6.15 7.979 6.712C7.846 7.457 7.135 7.998 6.288 7.998C5.841 7.998 5.411 7.88 5.046 7.665C4.748 7.489 4.707 7.074 4.963 6.842C5.129 6.692 5.375 6.656 5.568 6.77C5.778 6.894 6.029 6.963 6.288 6.963C6.659 6.963 6.921 6.744 6.959 6.532ZM23.999 4.5V6.5C23.999 8.981 21.98 11 19.499 11H15.499C15.223 11 14.999 10.776 14.999 10.5C14.999 10.224 15.223 10 15.499 10H19.499C21.429 10 22.999 8.43 22.999 6.5V4.5C22.999 2.57 21.429 1 19.499 1H4.5C2.57 1 1 2.57 1 4.5V6.5C1 8.43 2.57 10 4.5 10H5.5C5.776 10 6 10.224 6 10.5C6 10.776 5.776 11 5.5 11H4.5C2.019 11 0 8.981 0 6.5V4.5C0 2.019 2.019 0 4.5 0H19.5C21.981 0 23.999 2.019 23.999 4.5ZM20.999 23.5C20.999 23.776 20.775 24 20.499 24C20.223 24 19.999 23.776 19.999 23.5C19.999 21.863 19.005 20.474 17.403 19.873L12.323 17.968C12.128 17.895 11.999 17.708 11.999 17.5V12.607C11.999 11.818 11.464 11.136 10.754 11.021C10.305 10.949 9.868 11.067 9.527 11.357C9.191 11.643 8.998 12.06 8.998 12.5V19.924C8.998 20.344 8.763 20.719 8.384 20.902C8.005 21.085 7.566 21.035 7.237 20.774C7.237 20.774 5.522 19.407 5.51 19.395C4.904 18.841 3.963 18.876 3.404 19.475C2.839 20.079 2.87 21.032 3.468 21.593L5.101 23.144C5.426 23.453 5.208 24 4.759 24C4.632 24 4.51 23.952 4.418 23.865L2.778 22.317C1.778 21.38 1.73 19.799 2.672 18.793C3.606 17.792 5.176 17.735 6.184 18.658L7.86 19.993L7.998 19.926V12.502C7.998 11.768 8.319 11.073 8.879 10.597C9.439 10.121 10.182 9.92 10.914 10.035C12.102 10.229 12.998 11.335 12.998 12.608V17.154L17.754 18.937C19.755 19.688 20.998 21.437 20.998 23.5H20.999Z" fill="black"/>
</g>
<defs>
<clipPath id="clip0_892_454">
<rect width="24" height="24" fill="white"/>
</clipPath>
</defs>
</svg>
