<svg width="52" height="52" viewBox="0 0 52 52" fill="none" xmlns="http://www.w3.org/2000/svg">
<path d="M0.911859 6.6451C2.68419 10.0099 4.89203 14.1981 8.91553 16.2694C10.2242 16.9433 12.029 17.2704 13.6519 17.2704C14.5207 17.2704 16.293 17.0884 18.0134 15.9639C18.867 17.6084 19.3545 19.2139 19.5084 20.6223C19.5669 21.1639 20.0197 21.5778 20.5657 21.5886H20.5852C21.1225 21.5886 21.5797 21.1943 21.6577 20.6613C21.7877 19.7621 22.442 16.7851 25.159 14.7376C25.8285 15.5891 26.693 16.2889 27.7374 16.7244C28.5954 17.0819 29.501 17.2596 30.4024 17.2596C31.4944 17.2596 32.5799 16.9996 33.5722 16.4861C36.1072 15.1688 38.4949 12.8743 40.6702 9.66327C41.1815 8.9071 41.305 7.97977 41.0082 7.12177C40.694 6.2161 39.94 5.4946 38.9867 5.18693C36.1397 4.2726 31.8995 3.5641 27.8587 5.3711C24.7625 6.7556 23.2004 9.92327 24.0995 12.8201C22.4789 13.9684 21.4085 15.3746 20.7217 16.6854C20.4422 15.9704 20.0782 15.2403 19.6709 14.5058C19.9309 14.2003 20.1865 13.8753 20.4227 13.4983C21.6404 11.5591 21.9827 9.15843 21.3652 6.90727C20.765 4.71677 19.3459 2.95093 17.3699 1.93477C10.8807 -1.40623 4.81186 0.318434 1.76769 1.6401C1.00503 1.97593 0.413526 2.59993 0.151359 3.3561C-0.099974 4.0841 -0.0371407 4.8641 0.331193 5.55093L0.911859 6.64293V6.6451ZM28.747 7.3471C32.1552 5.8196 35.8407 6.4501 38.3302 7.24743C38.64 7.3471 38.8719 7.55727 38.9629 7.82593C39.0149 7.97327 39.0409 8.20293 38.8784 8.4456C36.9089 11.3533 34.7855 13.4116 32.5755 14.5599C31.3514 15.1926 29.8542 15.2554 28.5715 14.7224C27.3755 14.2263 26.5154 13.2968 26.1449 12.1094C25.575 10.2786 26.6692 8.27443 28.747 7.3471ZM2.63436 3.62693C5.32319 2.45477 10.6879 0.927267 16.384 3.85877C17.8119 4.59327 18.8432 5.88027 19.2809 7.4771C19.738 9.14327 19.5864 10.9459 18.4337 12.5449C16.605 10.0229 13.9465 7.57677 10.2524 5.65277C9.73019 5.3776 9.06936 5.58343 8.79203 6.1121C8.51469 6.64293 8.72269 7.29727 9.25353 7.57243C12.7765 9.40543 15.2509 11.7368 16.8997 14.1049C15.2075 15.2468 13.4179 15.0973 13.2229 15.0799C12.029 15.0669 10.898 14.8438 9.90786 14.3346C6.49319 12.5774 4.54536 8.88543 2.82936 5.62677L2.24219 4.5196C2.16203 4.3701 2.14903 4.2141 2.20103 4.06027C2.26386 3.87393 2.42419 3.7136 2.63436 3.62043V3.62693ZM50.2274 20.8368C49.1505 19.8574 47.753 19.3743 46.3079 19.4241C44.8562 19.4934 43.5172 20.1218 42.54 21.1964L34.454 30.0841C33.7737 27.6834 31.5615 25.9176 28.9442 25.9176H7.58519C3.40353 25.9176 0.00185931 29.3193 0.00185931 33.5009V44.3343C0.00185931 48.5159 3.40353 51.9176 7.58519 51.9176H20.5094C26.3724 51.9176 31.9732 49.4064 35.8775 45.0276L50.6239 28.4743C52.5977 26.2599 52.42 22.8323 50.2274 20.8346V20.8368ZM49.0075 27.0356L34.2612 43.5868C30.7685 47.5063 25.7549 49.7531 20.5094 49.7531H7.58519C4.59736 49.7531 2.16853 47.3243 2.16853 44.3364V33.5031C2.16853 30.5153 4.59736 28.0864 7.58519 28.0864H28.942C30.9029 28.0864 32.5019 29.6833 32.5019 31.6463C32.5019 33.4056 31.191 34.9201 29.4729 35.1649L16.124 36.7618C15.5304 36.8311 15.1057 37.3706 15.1772 37.9664C15.2465 38.5601 15.7882 38.9999 16.3819 38.9133L29.7545 37.3143C31.9689 36.9979 33.7542 35.4098 34.4042 33.3623L44.1455 22.6589C44.7327 22.0133 45.5387 21.6341 46.4119 21.5929C47.2829 21.5496 48.1235 21.8529 48.7692 22.4444C50.0887 23.6469 50.1949 25.7074 49.0075 27.0421V27.0356Z" fill="#101014"/>
</svg>
