<svg width="221" height="221" viewBox="0 0 221 221" fill="none" xmlns="http://www.w3.org/2000/svg">
<path d="M27.6869 219C78.5316 215.532 78.0139 215.009 112.051 212.555C112.574 212.518 113 212.081 113 211.556V125.345C113 125.214 112.974 125.083 112.924 124.962L97.2992 87.3151C97.2488 87.1936 97.2229 87.0634 97.2229 86.9318L97.2228 72.9245C97.2228 72.6668 97.1234 72.4191 96.9453 72.233L94.4853 69.663C94.1328 69.2947 94.1137 68.7202 94.441 68.3294L96.9895 65.2866C97.1402 65.1066 97.2228 64.8793 97.2228 64.6445V53C97.2228 52.4477 96.7751 52 96.2228 52H15.5952C15.0429 52 14.5952 52.4477 14.5952 53V64.6445C14.5952 64.8793 14.6778 65.1066 14.8286 65.2866L17.377 68.3294C17.7043 68.7202 17.6853 69.2947 17.3328 69.663L14.8728 72.233C14.6946 72.4191 14.5952 72.6668 14.5952 72.9245L14.5952 87.1311M27.6869 219L1 203.803M27.6869 219V129.972C27.6869 129.873 27.6721 129.774 27.6429 129.679L14.5952 87.1311M27.6869 219L14.5952 185M1 203.803V119.67C1 119.537 1.02657 119.405 1.07816 119.282L14.5952 87.1311M1 203.803L14.5952 185M14.5952 87.1311L14.5952 185" stroke="#101014" stroke-width="2"/>
<circle cx="173.5" cy="47.5" r="47.5" fill="white"/>
<mask id="mask0_85_418" style="mask-type:alpha" maskUnits="userSpaceOnUse" x="126" y="0" width="95" height="95">
<path d="M221 47.5C221 73.7335 199.734 95 173.5 95C147.266 95 126 73.7335 126 47.5C126 21.2665 147.266 0 173.5 0C199.734 0 221 21.2665 221 47.5Z" fill="white"/>
</mask>
<g mask="url(#mask0_85_418)">
<path d="M190.136 35.0897H210.5V49.5L206.298 53.4168L210 58.1683V105L137 102.897V58.1683L140.029 53.4168H162M162 53.4168L184.477 35.0897V23L162 39.8205V53.4168Z" stroke="black" stroke-width="2" stroke-linejoin="round"/>
</g>
<line x1="20.4" y1="68.6" x2="91.6" y2="68.6" stroke="black" stroke-width="0.8" stroke-linecap="round" stroke-dasharray="4.6 4.6"/>
<line x1="202" y1="53.4" x2="167" y2="53.4" stroke="black" stroke-width="0.8" stroke-dasharray="4 4"/>
<g clip-path="url(#clip0_85_418)">
<path d="M157.311 37.7954L153.028 42.2208C152.728 42.5375 152.221 42.5454 151.912 42.2367C151.595 41.9358 151.588 41.4292 151.896 41.1204L155.965 36.9246H142.958C141.652 36.9246 140.583 37.9933 140.583 39.2996V41.625C140.583 42.0604 140.227 42.4167 139.792 42.4167C139.356 42.4167 139 42.0604 139 41.625V39.2917C139 37.1067 140.773 35.3333 142.958 35.3333H155.958L151.888 31.1375C151.588 30.8208 151.595 30.3221 151.904 30.0213C152.055 29.8708 152.253 29.7996 152.458 29.7996C152.664 29.7996 152.87 29.8788 153.028 30.0371L157.303 34.4546C158.23 35.3808 158.23 36.885 157.311 37.8033V37.7954Z" fill="black"/>
</g>
<defs>
<clipPath id="clip0_85_418">
<rect width="19" height="14" fill="white" transform="matrix(1 0 0 -1 139 43)"/>
</clipPath>
</defs>
</svg>
