<svg width="221" height="225" viewBox="0 0 221 225" fill="none" xmlns="http://www.w3.org/2000/svg">
<path d="M27.6869 223C78.5316 219.532 78.0139 219.009 112.051 216.555C112.574 216.518 113 216.081 113 215.556V129.345C113 129.214 112.974 129.083 112.924 128.962L97.2992 91.3151C97.2488 91.1936 97.2229 91.0634 97.2229 90.9318L97.2228 67.9245C97.2228 67.6668 97.1234 67.4191 96.9453 67.233L94.4853 64.663C94.1328 64.2947 94.1137 63.7202 94.441 63.3294L96.9895 60.2866C97.1402 60.1066 97.2228 59.8793 97.2228 59.6445V57C97.2228 56.4477 96.7751 56 96.2228 56H15.5952C15.0429 56 14.5952 56.4477 14.5952 57V59.6445C14.5952 59.8793 14.6778 60.1066 14.8286 60.2866L17.377 63.3294C17.7043 63.7202 17.6853 64.2947 17.3328 64.663L14.8728 67.233C14.6946 67.4191 14.5952 67.6668 14.5952 67.9245L14.5952 91.1311M27.6869 223L1.50515 208.091C1.19285 207.913 1 207.581 1 207.222V123.67C1 123.537 1.02657 123.405 1.07816 123.282L14.5952 91.1311M27.6869 223V133.972C27.6869 133.873 27.6721 133.774 27.6429 133.679L14.5952 91.1311" stroke="#101014" stroke-width="2"/>
<path d="M27.6869 223C78.5316 219.532 78.0139 219.009 112.051 216.555C112.574 216.518 113 216.081 113 215.556V129.345C113 129.214 112.974 129.083 112.924 128.962L97.2992 91.3151C97.2488 91.1936 97.2229 91.0634 97.2229 90.9318L97.2228 67.9245C97.2228 67.6668 97.1234 67.4191 96.9453 67.233L94.4853 64.663C94.1328 64.2947 94.1137 63.7202 94.441 63.3294L96.9895 60.2866C97.1402 60.1066 97.2228 59.8793 97.2228 59.6445V57C97.2228 56.4477 96.7751 56 96.2228 56H15.5952C15.0429 56 14.5952 56.4477 14.5952 57V59.6445C14.5952 59.8793 14.6778 60.1066 14.8286 60.2866L17.377 63.3294C17.7043 63.7202 17.6853 64.2947 17.3328 64.663L14.8728 67.233C14.6946 67.4191 14.5952 67.6668 14.5952 67.9245L14.5952 91.1311M27.6869 223L1 207.803M27.6869 223V133.972C27.6869 133.873 27.6721 133.774 27.6429 133.679L14.5952 91.1311M27.6869 223L14.5952 189M1 207.803V123.67C1 123.537 1.02657 123.405 1.07816 123.282L14.5952 91.1311M1 207.803L14.5952 189M14.5952 91.1311L14.5952 189" stroke="#101014" stroke-width="2"/>
<path d="M90 79L24 79" stroke="black" stroke-width="1.5" stroke-linecap="round"/>
<path d="M23.433 75.4H26.7371H34.3209H90.567C91.353 75.4 92.1194 75.7561 92.6936 76.4119C93.2692 77.0693 93.6 77.9711 93.6 78.9207V79.0793C93.6 80.0289 93.2692 80.9307 92.6936 81.5881C92.1194 82.2439 91.353 82.6 90.567 82.6H23.433C22.647 82.6 21.8806 82.2439 21.3064 81.5881C20.7308 80.9307 20.4 80.0289 20.4 79.0793V78.9207C20.4 77.9711 20.7308 77.0693 21.3064 76.4119C21.8806 75.7561 22.647 75.4 23.433 75.4Z" stroke="black" stroke-width="0.8"/>
<path d="M221 51.5C221 77.7335 199.734 99 173.5 99C147.266 99 126 77.7335 126 51.5C126 25.2665 147.266 4 173.5 4C199.734 4 221 25.2665 221 51.5Z" fill="white"/>
<mask id="mask0_85_416" style="mask-type:alpha" maskUnits="userSpaceOnUse" x="126" y="4" width="95" height="95">
<path d="M221 51.5C221 77.7335 199.734 99 173.5 99C147.266 99 126 77.7335 126 51.5C126 25.2665 147.266 4 173.5 4C199.734 4 221 25.2665 221 51.5Z" fill="white"/>
</mask>
<g mask="url(#mask0_85_416)">
<path d="M143.502 49.0653V48.1818H148.144V49.0653H146.346V54H145.3V49.0653H143.502ZM149.039 54V48.1818H152.823V49.0653H150.093V50.6449H152.627V51.5284H150.093V53.1165H152.846V54H149.039ZM154.645 54H153.52L155.569 48.1818H156.87L158.921 54H157.796L156.242 49.375H156.196L154.645 54ZM154.682 51.7188H157.75V52.5653H154.682V51.7188ZM159.687 54V48.1818H161.869C162.316 48.1818 162.691 48.2595 162.994 48.4148C163.299 48.5701 163.529 48.7879 163.684 49.0682C163.842 49.3466 163.92 49.6714 163.92 50.0426C163.92 50.4157 163.841 50.7396 163.681 51.0142C163.524 51.2869 163.292 51.4981 162.985 51.6477C162.679 51.7955 162.302 51.8693 161.855 51.8693H160.301V50.9943H161.713C161.974 50.9943 162.188 50.9583 162.355 50.8864C162.521 50.8125 162.645 50.7055 162.724 50.5653C162.806 50.4233 162.846 50.2491 162.846 50.0426C162.846 49.8362 162.806 49.66 162.724 49.5142C162.643 49.3665 162.519 49.2547 162.352 49.179C162.185 49.1013 161.97 49.0625 161.707 49.0625H160.741V54H159.687ZM162.693 51.3636L164.133 54H162.957L161.542 51.3636H162.693ZM166.875 54V48.1818H167.929V53.1165H170.491V54H166.875ZM172.46 48.1818V54H171.406V48.1818H172.46ZM178.382 48.1818V54H177.445L174.703 50.0369H174.655V54H173.601V48.1818H174.544L177.283 52.1477H177.334V48.1818H178.382ZM179.531 54V48.1818H183.315V49.0653H180.585V50.6449H183.119V51.5284H180.585V53.1165H183.338V54H179.531Z" fill="black"/>
<path d="M120 36H198C198.552 36 199 36.4477 199 37V46.9338C199 47.2851 198.816 47.6106 198.514 47.7913L193.014 51.0913C192.348 51.4912 192.373 52.4654 193.058 52.8311L198.471 55.7176C198.796 55.8914 199 56.2307 199 56.6V67V74.7639C199 74.9192 199.036 75.0723 199.106 75.2111L208 93" stroke="#101014" stroke-width="2"/>
<path d="M210.251 55.0872C210.251 55.9782 209.174 56.4243 208.544 55.7944L204.707 51.9578C204.317 51.5673 204.317 50.9341 204.707 50.5436L208.544 46.707C209.174 46.0771 210.251 46.5232 210.251 47.4141V55.0872Z" fill="#101014"/>
<path d="M190 68L118 68" stroke="black" stroke-width="1.5" stroke-linecap="round"/>
<path d="M114.851 64.4H118.556H127.063H190.149C191.062 64.4 191.939 64.7691 192.587 65.4286C193.235 66.0884 193.6 66.9847 193.6 67.9207V68.0793C193.6 69.0153 193.235 69.9116 192.587 70.5714C191.939 71.2309 191.062 71.6 190.149 71.6H114.851C113.938 71.6 113.061 71.2309 112.413 70.5714C111.765 69.9116 111.4 69.0153 111.4 68.0793V67.9207C111.4 66.9847 111.765 66.0884 112.413 65.4286C113.061 64.7691 113.938 64.4 114.851 64.4Z" stroke="black" stroke-width="0.8"/>
</g>
</svg>
