<svg width="42" height="21" viewBox="0 0 42 21" fill="none" xmlns="http://www.w3.org/2000/svg">
<path d="M22.8358 0C23.259 0 23.6346 0.271349 23.7674 0.67316L26.271 8.24492C26.2811 8.27553 26.3097 8.29621 26.342 8.29621C26.3742 8.29621 26.4028 8.27551 26.413 8.24488L28.9112 0.674996C29.0442 0.272134 29.4205 0 29.8448 0C30.5229 0 30.9974 0.670397 30.7719 1.30996L27.9097 9.42884C27.675 10.0947 27.0457 10.5401 26.3397 10.5401C25.6334 10.5401 25.0039 10.0944 24.7694 9.42816L21.9103 1.30701C21.6856 0.66876 22.1592 0 22.8358 0Z" fill="#264EAB"/>
<path d="M18.151 0.954681C18.151 0.427425 18.5784 0 19.1057 0C19.6329 0 20.0604 0.427426 20.0604 0.954681V6.88606C20.0604 7.64088 19.882 8.30478 19.5251 8.87776C19.1717 9.45074 18.6742 9.89849 18.0326 10.221C17.391 10.5401 16.6414 10.6996 15.7836 10.6996C14.9224 10.6996 14.171 10.5401 13.5294 10.221C12.8878 9.89849 12.3903 9.45074 12.0369 8.87776C11.6835 8.30478 11.5068 7.64088 11.5068 6.88606V0.954681C11.5068 0.427425 11.9343 0 12.4615 0C12.9888 0 13.4162 0.427426 13.4162 0.954682V6.72651C13.4162 7.16568 13.5123 7.55682 13.7044 7.89992C13.9 8.24302 14.1745 8.51236 14.5278 8.70793C14.8812 8.90006 15.2998 8.99613 15.7836 8.99613C16.2674 8.99613 16.686 8.90006 17.0394 8.70793C17.3962 8.51236 17.6707 8.24302 17.8628 7.89992C18.0549 7.55682 18.151 7.16568 18.151 6.72651V0.954681Z" fill="#264EAB"/>
<path d="M40.9783 17.4492C39.653 17.4492 38.9555 18.0048 38.3975 18.4557C37.9441 18.818 37.639 19.0595 36.9589 19.0595C36.2789 19.0595 35.9824 18.818 35.5203 18.4557C34.9623 18.0128 34.2735 17.4492 32.9396 17.4492C31.6143 17.4492 30.9168 18.0048 30.3588 18.4557C29.9054 18.818 29.6003 19.0595 28.9202 19.0595C28.2401 19.0595 27.9437 18.818 27.4903 18.4557C26.9323 18.0048 26.2435 17.4492 24.9096 17.4492C23.5843 17.4492 22.8868 18.0048 22.3288 18.4557C21.8754 18.818 21.5703 19.0595 20.8989 19.0595C20.2189 19.0595 19.9224 18.818 19.469 18.4557C18.911 18.0048 18.2223 17.4492 16.8883 17.4492C15.563 17.4492 14.8655 18.0048 14.3075 18.4557C13.8541 18.818 13.549 19.0595 12.8776 19.0595C12.1976 19.0595 11.9011 18.818 11.4478 18.4557C10.8898 18.0048 10.201 17.4492 8.867 17.4492C7.54175 17.4492 6.84424 18.0048 6.29496 18.4557C5.84158 18.818 5.53643 19.0595 4.86508 19.0595C4.19373 19.0595 3.88858 18.818 3.4352 18.4557C2.89464 18.0128 2.19713 17.4492 0.871878 17.4492C0.392345 17.4492 0 17.8115 0 18.2544C0 18.6972 0.392345 19.0595 0.871878 19.0595C1.54322 19.0595 1.84838 19.3011 2.30176 19.6634C2.85976 20.1062 3.54854 20.6698 4.8738 20.6698C6.19905 20.6698 6.89656 20.1143 7.45456 19.6634C7.90794 19.3011 8.21309 19.0595 8.88444 19.0595C9.5645 19.0595 9.86094 19.3011 10.3143 19.6634C10.8723 20.1143 11.5611 20.6698 12.8951 20.6698C14.2203 20.6698 14.9178 20.1143 15.4758 19.6634C15.9292 19.3011 16.2344 19.0595 16.9057 19.0595C17.5858 19.0595 17.8822 19.3011 18.3356 19.6634C18.8936 20.1143 19.5824 20.6698 20.9164 20.6698C22.2416 20.6698 22.9391 20.1143 23.4971 19.6634C23.9505 19.3011 24.2557 19.0595 24.927 19.0595C25.5983 19.0595 25.9035 19.3011 26.3569 19.6634C26.9149 20.1143 27.6037 20.6698 28.9376 20.6698C30.2629 20.6698 30.9604 20.1143 31.5184 19.6634C31.9718 19.3011 32.2769 19.0595 32.957 19.0595C33.6371 19.0595 33.9335 19.3011 34.3956 19.6634C34.9536 20.1062 35.6424 20.6698 36.9764 20.6698C38.3016 20.6698 38.9991 20.1143 39.5571 19.6634C40.0105 19.3011 40.3157 19.0595 40.9957 19.0595C41.4753 19.0595 41.8676 18.6972 41.8676 18.2544C41.8676 17.8115 41.4578 17.4492 40.9783 17.4492Z" fill="#264EAB"/>
<path d="M40.9783 13.7617H0.871878C0.392345 13.7617 0 14.1541 0 14.6336C0 15.1131 0.392345 15.5055 0.871878 15.5055H40.9783C41.4578 15.5055 41.8502 15.1131 41.8502 14.6336C41.8502 14.1541 41.4578 13.7617 40.9783 13.7617Z" fill="#264EAB"/>
</svg>
