<svg width="18" height="12" viewBox="0 0 18 12" fill="none" xmlns="http://www.w3.org/2000/svg">
<path opacity="0.7" d="M8.29764 10.8626L0.287559 2.85232C0.102145 2.66706 -8.06437e-08 2.41974 -6.91167e-08 2.15604C-5.75898e-08 1.89233 0.102145 1.64502 0.287559 1.45975L0.87731 0.869851C1.2616 0.486001 1.88618 0.486001 2.26988 0.869851L8.99627 7.59624L15.7301 0.862388C15.9155 0.677122 16.1627 0.57483 16.4263 0.57483C16.6901 0.57483 16.9373 0.677122 17.1228 0.862389L17.7124 1.45229C17.8979 1.6377 18 1.88487 18 2.14857C18 2.41228 17.8979 2.65959 17.7124 2.84486L9.69504 10.8626C9.50904 11.0483 9.26071 11.1503 8.99671 11.1497C8.73169 11.1503 8.48349 11.0483 8.29764 10.8626Z" fill="#101014"/>
</svg>
